<svg xmlns="http://www.w3.org/2000/svg" width="28.238" height="37.651" viewBox="0 0 28.238 37.651"><defs><style>.a{fill:#eef7ec;}.b{fill:#58a75d;}</style></defs><g transform="translate(-1385.881 -991.174)"><g transform="translate(337.881 63.174)"><g transform="translate(1048 928)"><path class="a" d="M145.257,90.511l-.345-.314-4.361-3.922L136.189,90.2l-.345.314v6.746a1.573,1.573,0,0,0,1.569,1.569h6.275a1.573,1.573,0,0,0,1.569-1.569ZM140.55,80A12.547,12.547,0,0,1,153.1,92.55c0,4.95-6.4,15.939-10.056,20.732a3.142,3.142,0,0,1-4.989,0C134.4,108.489,128,97.5,128,92.55A12.547,12.547,0,0,1,140.55,80Z" transform="translate(-126.431 -78.431)"/><path class="b" d="M217.413,148.236v6.746a1.573,1.573,0,0,1-1.569,1.569h-6.275A1.573,1.573,0,0,1,208,154.982v-6.746l.345-.314L212.706,144l4.361,3.922Z" transform="translate(-198.587 -136.156)"/><g transform="translate(0 0)"><path d="M126.119,64A14.135,14.135,0,0,0,112,78.119c0,5.172,5.776,15.219,9.438,20.394h-3.163a1.569,1.569,0,1,0,0,3.138h15.688a1.569,1.569,0,1,0,0-3.138H130.8c3.662-5.176,9.438-15.223,9.438-20.394A14.135,14.135,0,0,0,126.119,64Zm0,3.138A10.994,10.994,0,0,1,137.1,78.119c0,4.218-5.859,14.7-9.735,19.781a1.621,1.621,0,0,1-2.494,0c-3.875-5.081-9.734-15.562-9.734-19.78a10.994,10.994,0,0,1,10.982-10.982Z" transform="translate(-112 -64)"/><path d="M175.693,140.55v-3.224l.519.467a1.568,1.568,0,1,0,2.1-2.331l-7.844-7.06a1.569,1.569,0,0,0-2.1,0l-7.844,7.06a1.568,1.568,0,1,0,2.1,2.331l.518-.467v3.224a3.141,3.141,0,0,0,3.138,3.138h6.275A3.141,3.141,0,0,0,175.693,140.55ZM166.28,134.5l3.138-2.824,3.138,2.824v6.048H166.28Z" transform="translate(-155.299 -121.725)"/></g></g></g></g></svg>