<svg xmlns="http://www.w3.org/2000/svg" width="392.766" height="385.031" viewBox="0 0 392.766 385.031"><defs><style>.a{fill:#e8e8e8;}.b{fill:#b8d344;}.c{fill:#34a853;}.d{fill:#fff;}.e,.g,.h,.i,.j,.k,.l,.m,.n{fill:#606060;isolation:isolate;}.e{opacity:0.11;}.f{fill:#161616;}.g{opacity:0.1;}.h{opacity:0.09;}.i{opacity:0.12;}.j{opacity:0.07;}.k{opacity:0.06;}.l{opacity:0.13;}.m{opacity:0.08;}.n{opacity:0.14;}</style></defs><g transform="translate(-178.828 -406.844)"><g transform="translate(178.828 425.806)"><g transform="translate(101.925 326.14)"><path class="a" d="M367.4,1044.67H582.47a.534.534,0,0,0,0-1.067H367.4a.534.534,0,0,0,0,1.067Z" transform="translate(-366.893 -1043.603)"/></g><g transform="translate(319.665 299.861)"><path class="a" d="M768.659,995.786q2.721,16.432,5.477,32.864c.107.676,1.138.391,1.031-.285q-2.721-16.432-5.477-32.864c-.107-.676-1.138-.391-1.031.285Z" transform="translate(-768.652 -995.115)"/></g><g transform="translate(319.792 299.249)"><path class="a" d="M769.407,995.518a244.915,244.915,0,0,1,43.035,1.138c.676.071.676-1,0-1.067a245.083,245.083,0,0,0-43.035-1.138c-.676.035-.712,1.1,0,1.067Z" transform="translate(-768.887 -993.987)"/></g><g transform="translate(325.188 333.153)"><path class="a" d="M779.231,1057.6a64.1,64.1,0,0,0,32.686,1.458c.676-.143.391-1.174-.285-1.032a62.826,62.826,0,0,1-32.152-1.458c-.64-.214-.925.818-.249,1.031Z" transform="translate(-778.842 -1056.544)"/></g><g transform="translate(358.249 301.101)"><path class="a" d="M844.623,997.937a259.575,259.575,0,0,1-4.766,33.112c-.143.676.889.96,1.031.285a258.692,258.692,0,0,0,4.8-33.4c.036-.711-1.031-.711-1.067,0Z" transform="translate(-839.844 -997.403)"/></g><g transform="translate(322.103 314.515)"><path class="a" d="M773.245,1022.931a123.72,123.72,0,0,0,17.463,21.056c.5.462,1.245-.285.747-.747a121.425,121.425,0,0,1-17.321-20.842c-.356-.569-1.281-.035-.889.533Z" transform="translate(-773.15 -1022.154)"/></g><g transform="translate(326.549 299.897)"><path class="a" d="M781.448,995.959a195.049,195.049,0,0,0,29.876,34.144c.5.462,1.281-.285.747-.747a196.96,196.96,0,0,1-29.7-33.931c-.391-.569-1.316-.035-.925.534Z" transform="translate(-781.354 -995.182)"/></g><g transform="translate(342.805 300.206)"><path class="a" d="M811.476,996.683a213.159,213.159,0,0,0,16.325,18.566.528.528,0,1,0,.747-.747,218.586,218.586,0,0,1-16.325-18.566c-.427-.534-1.173.213-.747.747Z" transform="translate(-811.349 -995.752)"/></g><g transform="translate(322.933 237.087)"><path class="a" d="M783.728,941.56a32.469,32.469,0,0,1-5.549-8.785,31.613,31.613,0,0,1-1.565-4.695c-.178-.783-.356-1.529-.462-2.312-.071-.356-.32-1.1-.178-1.423-.072-.462.249-.6.96-.462.747-.462,1.281-.32,1.565.5.32.427,1.209.213.96-.427a58.284,58.284,0,0,1-2.49-8.038c-.285-1.281-.533-2.526-.747-3.806-.143-.818-.214-1.6-.32-2.419q-.053-.64-.107-1.28c-.142-.676.178-1.174.96-1.53a.547.547,0,0,0,.925-.391,80.827,80.827,0,0,1-.533-14.938,31.052,31.052,0,0,1,1.53-7.647,18.3,18.3,0,0,1,.854-2.169,3.365,3.365,0,0,1,.426-.783h2.205c1.067.427,1.885,2.881,2.205,3.771,1.743,4.908,2.454,10.136,3.237,15.258l2.561,16.859c.071.569.854.427,1.031,0,.32-.356.64-.747.96-1.1a5.6,5.6,0,0,0-.747-.178c2.1,3.841,2.525,8.216,2.81,12.519.284,4.588.391,9.212.356,13.8a.534.534,0,0,0,1.067,0c.036-5.051-.071-10.065-.462-15.116-.285-4.055-.854-8.145-2.845-11.772a.529.529,0,0,0-.747-.178,3.207,3.207,0,0,0-1.458,1.743h1.031c-1.031-6.793-1.992-13.622-3.094-20.415a73.8,73.8,0,0,0-2.027-9.567c-.676-2.311-1.423-4.979-3.343-6.544-4.2-3.414-5.8,5.94-6.189,8.358-1,6.011-.427,12.128.142,18.139.32-.143.6-.249.925-.391a1.535,1.535,0,0,0-2.348.071c-1,1.174-.356,3.485-.178,4.8a57.613,57.613,0,0,0,3.414,13.3l.96-.426c-.854-1.174-2.6-2.845-3.984-1.316-1.174,1.316-.249,4.09.071,5.548a32.642,32.642,0,0,0,7.469,14.263c.462.462,1.209-.321.747-.818Z" transform="translate(-774.682 -879.289)"/></g><g transform="translate(337.125 228.3)"><path class="a" d="M802.052,900.844c-.107-1.92.071-12.839,3.735-11.879a.54.54,0,0,0,.676-.5c.782-6.26,3.343-11.737,5.869-17.392.569-1.244,1.138-2.525,1.707-3.77.747-1.636,1.849-4.588,4.019-2.312,1.992,2.027,2.241,5.37,2.276,8.038.072,5.9-.213,11.844-.356,17.783-.142,6.331-.284,12.7-.426,19.029,0,.569.96.747,1.031.142.32.071.64.178.96.249a4.379,4.379,0,0,1,.071.96c0,.427-.036.854-.036,1.281-.035,1.067-.071,2.1-.142,3.166-.107,2.24-.178,4.481-.284,6.686a78.068,78.068,0,0,1-1.21,12.875c-.142.676.889.96,1.032.285,1.316-6.26,1.245-12.768,1.494-19.135.071-1.636.178-3.308.214-4.944a3.242,3.242,0,0,0-.569-2.312,1.469,1.469,0,0,0-2.561.6c.355.036.711.107,1.031.142.249-11.7.6-23.4.782-35.1.071-3.521.036-9.674-3.841-11.417a2.626,2.626,0,0,0-3.45,1.316,68.3,68.3,0,0,0-3.414,7.5c-2.418,5.335-4.588,10.492-5.335,16.361A8.022,8.022,0,0,1,806,888c-2.17-.569-3.343,1.6-3.913,3.344a25.48,25.48,0,0,0-1.174,9.531c.107.676,1.174.676,1.138-.036Z" transform="translate(-800.867 -863.076)"/></g><g transform="translate(360.885 325.073)"><path class="a" d="M845.216,1042.7h20.13a.534.534,0,0,0,0-1.067h-20.13a.534.534,0,0,0,0,1.067Z" transform="translate(-844.709 -1041.634)"/></g><g transform="translate(0 185.715)"><path class="a" d="M178.828,785.006V933.532a.534.534,0,0,0,1.067,0V785.006a.534.534,0,0,0-1.067,0Z" transform="translate(-178.828 -784.499)"/></g><g transform="translate(0.32 333.929)"><path class="a" d="M179.952,1059.042h67.612a.534.534,0,0,0,0-1.067H179.952a.534.534,0,0,0,0,1.067Z" transform="translate(-179.419 -1057.975)"/></g><g transform="translate(67.612 183.296)"><path class="a" d="M304.648,931.2V780.544a.534.534,0,0,0-1.067,0v4.73a.534.534,0,0,0,1.067,0v-4.73h-1.067V931.2a.534.534,0,0,0,1.067,0Z" transform="translate(-303.581 -780.037)"/></g><g transform="translate(1.663 182.771)"><path class="a" d="M248.379,779.069H182.4a.534.534,0,0,0,0,1.067h65.976a.534.534,0,0,0,0-1.067Z" transform="translate(-181.896 -779.069)"/></g><g transform="translate(7.149 193.646)"><path class="a" d="M193.086,817.175V799.641a.534.534,0,0,0-1.067,0v17.534a.534.534,0,0,0,1.067,0Z" transform="translate(-192.019 -799.134)"/></g><g transform="translate(7.176 193.37)"><path class="a" d="M192.575,799.692h51.038a.534.534,0,0,0,0-1.067H192.575a.534.534,0,0,0,0,1.067Z" transform="translate(-192.068 -798.625)"/></g><g transform="translate(58.685 194.179)"><path class="a" d="M287.109,800.625v14.689a.534.534,0,0,0,1.067,0V800.625a.534.534,0,0,0-1.067,0Z" transform="translate(-287.109 -800.118)"/></g><g transform="translate(7.682 211.154)"><path class="a" d="M193.536,832.5h50.5a.534.534,0,0,0,0-1.067h-50.5a.533.533,0,0,0,0,1.067Z" transform="translate(-193.003 -831.438)"/></g><g transform="translate(27.739 199.972)"><path class="a" d="M232.823,817.079a2.823,2.823,0,0,1-1.707-3.058,2.606,2.606,0,0,1,3.628-1.885c1.316.747,1.352,2.7.6,3.913a1.959,1.959,0,0,1-3.343.284c-.356-.569-1.281-.035-.925.534a2.985,2.985,0,0,0,4.7.391c1.387-1.458,1.6-4.41-.036-5.762-1.671-1.387-4.268-.533-5.264,1.245A3.815,3.815,0,0,0,232.29,818c.6.32,1.173-.6.533-.925Z" transform="translate(-230.011 -810.806)"/></g><g transform="translate(6.793 230.279)"><path class="a" d="M192.429,884.769V867.235a.534.534,0,0,0-1.067,0v17.534a.534.534,0,0,0,1.067,0Z" transform="translate(-191.362 -866.728)"/></g><g transform="translate(6.82 230.004)"><path class="a" d="M191.919,867.286h51.038a.534.534,0,0,0,0-1.067H191.919a.534.534,0,0,0,0,1.067Z" transform="translate(-191.412 -866.219)"/></g><g transform="translate(58.329 230.813)"><path class="a" d="M286.453,868.219v14.689a.534.534,0,0,0,1.067,0V868.219a.534.534,0,0,0-1.067,0Z" transform="translate(-286.453 -867.712)"/></g><g transform="translate(7.327 247.787)"><path class="a" d="M192.88,900.1h50.5a.534.534,0,0,0,0-1.067h-50.5a.534.534,0,0,0,0,1.067Z" transform="translate(-192.347 -899.031)"/></g><g transform="translate(27.384 236.605)"><path class="a" d="M232.167,884.673a2.823,2.823,0,0,1-1.707-3.059,2.606,2.606,0,0,1,3.628-1.885c1.316.747,1.351,2.7.6,3.912a1.959,1.959,0,0,1-3.343.285c-.356-.569-1.28-.036-.925.533a2.984,2.984,0,0,0,4.7.391c1.387-1.458,1.6-4.41-.036-5.762-1.671-1.387-4.268-.533-5.264,1.245a3.815,3.815,0,0,0,1.813,5.264c.6.32,1.174-.6.534-.925Z" transform="translate(-229.355 -878.4)"/></g><g transform="translate(7.469 269.189)"><path class="a" d="M193.676,956.562V939.028a.534.534,0,0,0-1.067,0v17.534a.534.534,0,0,0,1.067,0Z" transform="translate(-192.609 -938.521)"/></g><g transform="translate(7.496 268.913)"><path class="a" d="M193.166,939.079H244.2a.534.534,0,0,0,0-1.067H193.166a.534.534,0,0,0,0,1.067Z" transform="translate(-192.659 -938.012)"/></g><g transform="translate(59.005 269.696)"><path class="a" d="M287.7,939.99v14.689a.534.534,0,0,0,1.067,0V939.99a.534.534,0,1,0-1.067,0Z" transform="translate(-287.7 -939.456)"/></g><g transform="translate(7.994 286.697)"><path class="a" d="M194.085,971.892h50.5a.534.534,0,0,0,0-1.067h-50.5a.534.534,0,0,0,0,1.067Z" transform="translate(-193.578 -970.825)"/></g><g transform="translate(28.06 275.515)"><path class="a" d="M233.414,956.467a2.823,2.823,0,0,1-1.707-3.059,2.6,2.6,0,0,1,3.627-1.885c1.316.747,1.352,2.7.6,3.912a1.959,1.959,0,0,1-3.343.284c-.356-.569-1.28-.036-.925.533a2.985,2.985,0,0,0,4.7.391c1.387-1.458,1.6-4.411-.036-5.762-1.671-1.387-4.268-.534-5.264,1.244a3.816,3.816,0,0,0,1.814,5.264c.6.285,1.138-.6.534-.925Z" transform="translate(-230.602 -950.193)"/></g><g transform="translate(0.058 182.736)"><path class="a" d="M180.015,783.414a14.269,14.269,0,0,1,.143-3.7,5.926,5.926,0,0,0-.5.391c1.1,0,2.169,0,3.272-.036a.534.534,0,0,0,0-1.067c-1.1,0-2.169,0-3.272.036a.533.533,0,0,0-.5.391,16.623,16.623,0,0,0-.178,3.983c.036.675,1.1.675,1.031,0Z" transform="translate(-178.934 -779.003)"/></g><g transform="translate(7.184 178.103)"><path class="a" d="M193.151,775.444v-4.481a.534.534,0,0,0-1.067,0v4.481a.534.534,0,0,0,1.067,0Z" transform="translate(-192.084 -770.456)"/></g><g transform="translate(7.389 177.863)"><path class="a" d="M192.969,771.079h37.665a.534.534,0,0,0,0-1.067H192.969a.534.534,0,0,0,0,1.067Z" transform="translate(-192.462 -770.012)"/></g><g transform="translate(45.027 178.281)"><path class="a" d="M261.909,771.291v4.482a.534.534,0,0,0,1.067,0v-4.482a.534.534,0,0,0-1.067,0Z" transform="translate(-261.909 -770.784)"/></g><g transform="translate(14.298 173.408)"><path class="a" d="M206.276,766.995v-4.7a.534.534,0,0,0-1.067,0v4.7a.534.534,0,0,0,1.067,0Z" transform="translate(-205.209 -761.793)"/></g><g transform="translate(14.929 172.99)"><path class="a" d="M206.881,762.089h34.393a.534.534,0,0,0,0-1.067H206.881a.534.534,0,0,0,0,1.067Z" transform="translate(-206.374 -761.022)"/></g><g transform="translate(43.987 177.828)"><path class="a" d="M260.5,771.014h4.944a.534.534,0,0,0,0-1.067H260.5a.534.534,0,0,0,0,1.067Z" transform="translate(-259.99 -769.947)"/></g><g transform="translate(49.295 173.301)"><path class="a" d="M269.784,762.1v4.019a.534.534,0,0,0,1.067,0V762.1a.534.534,0,0,0-1.067,0Z" transform="translate(-269.784 -761.596)"/></g><g transform="translate(6.865 169.149)"><path class="a" d="M191.494,754.468v4.019a.534.534,0,0,0,1.067,0v-4.019a.533.533,0,1,0-1.067,0Z" transform="translate(-191.494 -753.934)"/></g><g transform="translate(7.282 168.864)"><path class="a" d="M192.772,754.476h31.654a.534.534,0,0,0,0-1.067H192.772a.534.534,0,0,0,0,1.067Z" transform="translate(-192.265 -753.409)"/></g><g transform="translate(39.301 168.891)"><path class="a" d="M251.344,753.966v2.987a.534.534,0,0,0,1.067,0v-2.987a.534.534,0,0,0-1.067,0Z" transform="translate(-251.344 -753.459)"/></g><g transform="translate(7.14 173.168)"><path class="a" d="M192.509,762.417H200.3a.534.534,0,0,0,0-1.067h-7.789a.534.534,0,0,0,0,1.067Z" transform="translate(-192.002 -761.35)"/></g><g transform="translate(6.642 329.732)"><path class="a" d="M191.591,1051.3h45.916a.534.534,0,0,0,0-1.067H191.591a.534.534,0,0,0,0,1.067Z" transform="translate(-191.084 -1050.231)"/></g><g transform="translate(184.52 222.063)"><path class="a" d="M520.358,869.964v-17.89a.534.534,0,0,0-1.067,0v17.89a.534.534,0,0,0,1.067,0Z" transform="translate(-519.291 -851.568)"/></g><g transform="translate(168.052 239.927)"><path class="a" d="M489.44,885.6h33.788a.534.534,0,0,0,0-1.067H489.44a.534.534,0,1,0,0,1.067Z" transform="translate(-488.906 -884.528)"/></g><g transform="translate(192.451 239.953)"><path class="a" d="M533.925,885.084v11.062a.534.534,0,0,0,1.067,0V885.084a.534.534,0,0,0-1.067,0Z" transform="translate(-533.925 -884.578)"/></g><g transform="translate(180.278 252.411)"><path class="a" d="M511.972,908.63h30.374a.534.534,0,0,0,0-1.067H511.972a.534.534,0,0,0,0,1.067Z" transform="translate(-511.465 -907.563)"/></g><g transform="translate(33.361 46.222)"><path class="a" d="M241.451,555.438V527.625a.534.534,0,0,0-1.067,0v27.813a.534.534,0,0,0,1.067,0Z" transform="translate(-240.384 -527.118)"/></g><g transform="translate(33.388 46.729)"><path class="a" d="M240.941,529.12h44.245a.534.534,0,0,0,0-1.067H240.941a.534.534,0,0,0,0,1.067Z" transform="translate(-240.434 -528.053)"/></g><g transform="translate(77.606 47.005)"><path class="a" d="M322.022,529.069v24.9a.534.534,0,0,0,1.067,0v-24.9a.534.534,0,0,0-1.067,0Z" transform="translate(-322.022 -528.562)"/></g><g transform="translate(33.126 74.009)"><path class="a" d="M240.47,579.455H284.43a.534.534,0,0,0,0-1.067H240.47a.534.534,0,0,0,0,1.067Z" transform="translate(-239.95 -578.388)"/></g><g transform="translate(35.744 49.139)"><path class="a" d="M245.848,555.52V533.006a.534.534,0,0,0-1.067,0V555.52a.534.534,0,0,0,1.067,0Z" transform="translate(-244.781 -532.499)"/></g><g transform="translate(35.771 49.112)"><path class="a" d="M245.338,533.517H284a.534.534,0,0,0,0-1.067H245.338a.534.534,0,0,0,0,1.067Z" transform="translate(-244.831 -532.45)"/></g><g transform="translate(74.69 49.921)"><path class="a" d="M316.641,534.45v19.6a.534.534,0,0,0,1.067,0v-19.6a.534.534,0,0,0-1.067,0Z" transform="translate(-316.641 -533.943)"/></g><g transform="translate(36.562 71.875)"><path class="a" d="M246.824,575.517h37.629a.534.534,0,0,0,0-1.067H246.824a.534.534,0,1,0,0,1.067Z" transform="translate(-246.29 -574.45)"/></g><g transform="translate(36.704 52.061)"><path class="a" d="M247.477,557.74q10.724-9.23,21.02-18.957c.5-.462-.249-1.209-.747-.747-6.865,6.509-13.871,12.8-21.02,18.957-.533.427.249,1.174.747.747Z" transform="translate(-246.551 -537.891)"/></g><g transform="translate(48.439 52.167)"><path class="a" d="M269.1,557.866a222.681,222.681,0,0,1,18.21-18.886c.5-.462-.249-1.209-.747-.747a222.706,222.706,0,0,0-18.21,18.886c-.462.534.285,1.281.747.747Z" transform="translate(-268.204 -538.088)"/></g><g transform="translate(51.351 42.816)"><path class="a" d="M274.616,525.208a4.509,4.509,0,0,1,.711-1.885c.355-.533,1.138-1.458,1.85-1.423,1.067.036.854,2.276,1.138,2.988.249.64,1.28.356,1.031-.285-.5-1.281-.071-3.806-2.169-3.77-1.956.036-3.308,2.419-3.592,4.09-.107.676.925.96,1.031.284Z" transform="translate(-273.577 -520.833)"/></g><g transform="translate(315.12 159.715)"><path class="a" d="M761.333,742.867v-5.833a.534.534,0,0,0-1.067,0v5.833a.534.534,0,0,0,1.067,0Z" transform="translate(-760.266 -736.528)"/></g><g transform="translate(315.146 159.688)"><path class="a" d="M760.822,737.545h74.725a.534.534,0,0,0,0-1.067H760.822a.534.534,0,0,0,0,1.067Z" transform="translate(-760.315 -736.478)"/></g><g transform="translate(315.146 165.272)"><path class="a" d="M760.822,747.848h74.725a.534.534,0,0,0,0-1.067H760.822a.534.534,0,0,0,0,1.067Z" transform="translate(-760.315 -746.781)"/></g><g transform="translate(389.596 159.689)"><path class="a" d="M897.684,737.012V742.6a.534.534,0,0,0,1.067,0v-5.584a.534.534,0,1,0-1.067,0Z" transform="translate(-897.684 -736.478)"/></g><g transform="translate(318.428 125.891)"><path class="a" d="M767.436,707.915v-33.29a.534.534,0,0,0-1.067,0v33.29a.534.534,0,1,0,1.067,0Z" transform="translate(-766.369 -674.118)"/></g><g transform="translate(318.205 124.869)"><path class="a" d="M766.466,673.3h8.145a.534.534,0,0,0,0-1.067h-8.145a.534.534,0,0,0,0,1.067Z" transform="translate(-765.959 -672.231)"/></g><g transform="translate(326.572 122.086)"><path class="a" d="M781.4,667.6v37.1a.534.534,0,0,0,1.067,0V667.6a.534.534,0,0,0-1.067,0Z" transform="translate(-781.397 -667.096)"/></g><g transform="translate(326.835 121.561)"><path class="a" d="M782.4,667.2h8.393a.534.534,0,0,0,0-1.067H782.4a.534.534,0,0,0,0,1.067Z" transform="translate(-781.881 -666.128)"/></g><g transform="translate(335.464 121.561)"><path class="a" d="M797.8,666.661v37.1a.534.534,0,0,0,1.067,0v-37.1a.534.534,0,0,0-1.067,0Z" transform="translate(-797.803 -666.128)"/></g><g transform="translate(335.464 114.19)"><path class="a" d="M798.87,663.206V653.035a.534.534,0,0,0-1.067,0v10.172a.534.534,0,1,0,1.067,0Z" transform="translate(-797.803 -652.528)"/></g><g transform="translate(335.74 113.665)"><path class="a" d="M798.819,652.626h10.67a.534.534,0,0,0,0-1.067h-10.67a.534.534,0,0,0,0,1.067Z" transform="translate(-798.312 -651.559)"/></g><g transform="translate(346.383 114.199)"><path class="a" d="M817.95,653.077V697.82a.534.534,0,0,0,1.067,0V653.077a.534.534,0,0,0-1.067,0Z" transform="translate(-817.95 -652.544)"/></g><g transform="translate(346.383 114.199)"><path class="a" d="M817.95,653.077v23.9a.534.534,0,0,0,1.067,0v-23.9a.534.534,0,0,0-1.067,0Z" transform="translate(-817.95 -652.544)"/></g><g transform="translate(349.69 153.143)"><path class="a" d="M825.12,730.7c.035-1.387.035-2.774.071-4.161l-.533.533A185.706,185.706,0,0,1,845,725.5q5.015-.107,10.03.106c1.316.036,3.664-.249,4.873.32,1.387.64,1.031,3.983,1,5.264a.534.534,0,0,0,1.067,0c0-1.885.427-5.762-1.992-6.331a28.657,28.657,0,0,0-4.944-.32c-2.062-.072-4.161-.142-6.224-.142a176.929,176.929,0,0,0-24.15,1.565.547.547,0,0,0-.534.533c-.035,1.387-.035,2.774-.071,4.161a.534.534,0,0,0,1.067.036Z" transform="translate(-824.053 -724.4)"/></g><g transform="translate(356.185 147.918)"><path class="a" d="M837.224,721.444a17.62,17.62,0,0,1,0-2.739c.178-1.316.783-1.316,2.027-1.387,1.885-.107,3.734-.213,5.62-.285,3.841-.213,7.718-.427,11.559-.6,3.663-.213,7.362-.534,11.061-.569,1.174,0,2.49.035,3.307,1,1.1,1.316.178,2.81-1.316,3.237-1.53.427-3.166.107-4.695.462-.676.143-.391,1.174.285,1.031,2.17-.5,8.714.107,7.362-4.2a3.916,3.916,0,0,0-3.414-2.49c-2.7-.391-5.655.142-8.358.285-5.62.284-11.2.6-16.823.889l-4.2.214a6.781,6.781,0,0,0-2.668.285c-1.458.747-.782,3.7-.782,4.944-.036.64,1.031.64,1.031-.071Z" transform="translate(-836.036 -714.759)"/></g><g transform="translate(296.269 5.214)"><path class="a" d="M726.551,472.054v-20.1a.534.534,0,0,0-1.067,0v20.1a.534.534,0,0,0,1.067,0Z" transform="translate(-725.484 -451.452)"/></g><g transform="translate(296.269 5.223)"><path class="a" d="M726.018,452.536h37.807a.534.534,0,0,0,0-1.067H726.018a.534.534,0,1,0,0,1.067Z" transform="translate(-725.484 -451.469)"/></g><g transform="translate(334.077 5.463)"><path class="a" d="M795.244,452.419v18.21a.534.534,0,0,0,1.067,0v-18.21a.534.534,0,0,0-1.067,0Z" transform="translate(-795.244 -451.912)"/></g><g transform="translate(296.51 25.069)"><path class="a" d="M726.434,489.155h37.1a.534.534,0,0,0,0-1.067h-37.1a.534.534,0,0,0,0,1.067Z" transform="translate(-725.927 -488.088)"/></g><g transform="translate(310.598 0)"><path class="a" d="M753.066,447.8a9.7,9.7,0,0,1,.178-2.49c.107-.533.391-2.063.96-2.276l.64.32a4.105,4.105,0,0,1,.143.64c.107.391.178.783.249,1.138.178.783.356,1.529.534,2.312.142.676,1.173.391,1.031-.285-.32-1.352-.534-2.774-.96-4.09-.249-.747-.747-1.387-1.6-1.21-.925.178-1.387,1.138-1.671,1.921a10.367,10.367,0,0,0-.641,4.019c.107.676,1.174.676,1.138,0Z" transform="translate(-751.923 -441.832)"/></g><g transform="translate(298.694 8.109)"><path class="a" d="M730.734,471.691a171.853,171.853,0,0,1,21.731-13.906c.6-.32.072-1.245-.533-.925A175.877,175.877,0,0,0,730.2,470.766c-.569.427-.035,1.352.534.925Z" transform="translate(-729.957 -456.793)"/></g><g transform="translate(307.788 9.496)"><path class="a" d="M747.667,472.721a119.831,119.831,0,0,1,19.064-12.377c.6-.32.071-1.245-.533-.925a123.639,123.639,0,0,0-19.277,12.555c-.533.427.214,1.173.747.747Z" transform="translate(-746.737 -459.352)"/></g><g transform="translate(322.731 47.076)"><path class="a" d="M775.376,540.3V529.2a.534.534,0,0,0-1.067,0v11.1a.534.534,0,0,0,1.067,0Z" transform="translate(-774.309 -528.693)"/></g><g transform="translate(322.971 46.8)"><path class="a" d="M775.259,529.251h21.269a.534.534,0,0,0,0-1.067H775.259a.534.534,0,0,0,0,1.067Z" transform="translate(-774.753 -528.184)"/></g><g transform="translate(322.971 58.146)"><path class="a" d="M775.259,550.186h22.194a.534.534,0,0,0,0-1.067H775.259a.534.534,0,0,0,0,1.067Z" transform="translate(-774.753 -549.119)"/></g><g transform="translate(344.711 47.289)"><path class="a" d="M814.866,529.594v11.595a.534.534,0,0,0,1.067,0V529.594a.534.534,0,0,0-1.067,0Z" transform="translate(-814.866 -529.087)"/></g><g transform="translate(331.214 42.496)"><path class="a" d="M791.046,524.831c-.036-.462.178-3.663.96-3.272.214.107.356,1.352.391,1.6a8.627,8.627,0,0,1,.143,2.134.534.534,0,0,0,1.067,0,13.506,13.506,0,0,0-.391-3.379c-.178-.64-.427-1.636-1.281-1.671-.818-.036-1.245.96-1.494,1.565a6.757,6.757,0,0,0-.462,3.023c.071.676,1.138.676,1.067,0Z" transform="translate(-789.961 -520.242)"/></g><g transform="translate(324.457 49.516)"><path class="a" d="M778.293,541.5c3.734-2.311,7.4-4.73,10.954-7.291.534-.391.036-1.316-.533-.924-3.557,2.561-7.22,5.015-10.955,7.291a.534.534,0,0,0,.534.925Z" transform="translate(-777.494 -533.195)"/></g><g transform="translate(330.301 50.241)"><path class="a" d="M789.208,542.438a109.522,109.522,0,0,1,9.745-6.9c.569-.356.036-1.281-.533-.925a107.463,107.463,0,0,0-9.959,7.078c-.534.427.213,1.173.747.747Z" transform="translate(-788.277 -534.533)"/></g><g transform="translate(14.582 97.945)"><path class="a" d="M205.734,623.087v15.258a.534.534,0,0,0,1.067,0V623.087a.534.534,0,1,0-1.067,0Z" transform="translate(-205.734 -622.553)"/></g><g transform="translate(6.073 113.808)"><path class="a" d="M190.541,652.889H214.37a.534.534,0,0,0,0-1.067H190.541a.534.534,0,0,0,0,1.067Z" transform="translate(-190.034 -651.822)"/></g><g transform="translate(22.549 114.439)"><path class="a" d="M220.434,653.494v9.176a.534.534,0,0,0,1.067,0v-9.176a.534.534,0,0,0-1.067,0Z" transform="translate(-220.434 -652.987)"/></g></g><g transform="translate(197.457 406.844)"><circle class="b" cx="4.304" cy="4.304" r="4.304" transform="translate(123.281 3.201)"/><circle class="b" cx="3.841" cy="3.841" r="3.841" transform="translate(135.481 11.808)"/><circle class="c" cx="3.308" cy="3.308" r="3.308" transform="translate(278.138 212.866)"/><circle class="c" cx="2.739" cy="2.739" r="2.739" transform="translate(267.895 198.71)"/><circle class="c" cx="1.956" cy="1.956" r="1.956" transform="translate(139.322)"/><circle class="c" cx="7.22" cy="7.22" r="7.22" transform="translate(11.46 157.738)"/><circle class="b" cx="6.758" cy="6.758" r="6.758" transform="translate(17.684 150.34)"/><circle class="b" cx="2.312" cy="2.312" r="2.312" transform="translate(280.13 196.825)"/><circle class="b" cx="4.659" cy="4.659" r="4.659" transform="translate(334.369 15.614)"/><g transform="translate(151.277 38.633)"><path class="b" d="M494.065,500.134a1.411,1.411,0,0,1-.356-1.92,2.493,2.493,0,0,1,1.636-1.138,23.3,23.3,0,0,1,2.7-.32,5.117,5.117,0,0,0,3.13-1.28c1.031-1.032.854-2.383.747-3.7a4.043,4.043,0,0,1,3.557-4.624c1.992-.213,4.837.107,4.944-2.668.071-1.636-1.352-3.77.427-4.943,1.316-.854,3.521-.214,4.837.213.641.214.925-.818.285-1.031-2.24-.747-6.437-1.352-7.042,1.814a6.22,6.22,0,0,0,.213,2.419c.178.925.534,1.885-.427,2.667a3.272,3.272,0,0,1-1.85.356c-1.636.107-3.023.107-4.3,1.245a5.139,5.139,0,0,0-1.743,4.232c.071,1.743.214,3.379-1.778,3.983a16.756,16.756,0,0,1-2.988.391c-1.423.178-2.88.64-3.485,2.063a2.374,2.374,0,0,0,.889,3.13c.676.356,1.209-.569.6-.889Z" transform="translate(-492.328 -478.126)"/></g><g transform="translate(164.825 32.537)"><path class="b" d="M518.96,488.154c-.96-.569-.641-1.956.035-2.632.818-.854,2.347-.889,3.414-1.031a8.219,8.219,0,0,0,3.308-.925,3.4,3.4,0,0,0,1.565-2.063c.284-1.352-.96-3.272-.214-4.446s2.81-.64,3.948-.675a4.022,4.022,0,0,0,2.525-.783,4.2,4.2,0,0,0,1.352-3.023c.107-.747.071-1.494.178-2.241.142-1,1.778-3.841,2.916-1.814.32.6,1.245.072.925-.533a2.213,2.213,0,0,0-2.845-.925c-1.387.5-1.885,1.885-2.063,3.237-.178,1.245.036,2.632-.569,3.77-.676,1.245-2.027,1.28-3.272,1.245s-2.739-.214-3.7.783c-1.1,1.173-.462,2.667-.249,4.054.534,3.521-3.7,3.023-5.9,3.592a3.678,3.678,0,0,0-2.845,2.418,2.411,2.411,0,0,0,1,2.917c.533.356,1.067-.569.5-.925Z" transform="translate(-517.326 -466.88)"/></g><g transform="translate(130.738 306.144)"><path class="c" d="M456.079,977.922a3.263,3.263,0,0,1,.569-4.375,3.148,3.148,0,0,1,4.73.924,3.658,3.658,0,0,1-.676,4.944,3.046,3.046,0,0,1-5.086-2.169.534.534,0,0,0-1.067,0,4.074,4.074,0,0,0,5.442,3.806,4.745,4.745,0,0,0,2.525-6.758c-1.209-2.205-4.019-3.45-6.224-1.85a4.389,4.389,0,0,0-.96,6.225c.427.533,1.173-.249.747-.747Z" transform="translate(-454.43 -971.72)"/></g><g transform="translate(135.501 309.474)"><path class="c" d="M467.324,985.857a6.121,6.121,0,0,1-2.916-3.485c-.534-2.312,1.6-4.268,3.77-3.023,1.387.818,2.7,2.454,2.454,4.161-.214,1.494-2.525,2.881-3.663,1.316-.391-.533-1.316-.035-.925.534a3.132,3.132,0,0,0,4.909-.071c1.778-2.063.213-5.051-1.636-6.438-2.1-1.6-4.766-1.316-5.8,1.316-1.1,2.739,1.031,5.228,3.237,6.615a.544.544,0,0,0,.569-.925Z" transform="translate(-463.219 -977.864)"/></g><g transform="translate(21.352 260.825)"><path class="c" d="M254.728,905.583a2.229,2.229,0,0,1-.427-3.379c.925-1,2.1-.818,3.236-.284a5.4,5.4,0,0,0,3.2.818c3.627-.675.32-5.9,3.272-7.042,1.245-.462,1.458.249,2.241,1a1.975,1.975,0,0,0,1.28.6,2.33,2.33,0,0,0,2.027-1.174c.782-1.28.427-2.952.782-4.339a3.814,3.814,0,0,1,1.636-2.49c1.1-.533,2.81.036,2.81,1.423a.534.534,0,0,0,1.067,0c.036-3.094-4.019-3.343-5.619-1.28a6.424,6.424,0,0,0-.96,2.063c-.249,1,.035,2.525-.391,3.414-1.281,2.7-2.027.747-2.668.142a2.38,2.38,0,0,0-.889-.569,2.232,2.232,0,0,0-1.778.143c-1.707.783-1.992,2.6-2.027,4.268-.035.96.356,2.632-1.28,2.881a3.96,3.96,0,0,1-1.992-.6,5.991,5.991,0,0,0-2.205-.747c-3.379-.214-4.624,3.983-2.134,5.975.6.391,1.352-.356.818-.818Z" transform="translate(-252.599 -888.1)"/></g><g transform="translate(34.582 246.681)"><path class="c" d="M278.429,877.8a3.307,3.307,0,0,1,.64-3.877c1.067-1.031,2.241-.64,3.486-1,1.707-.5,1.813-1.885,1.92-3.45.356-4.7,7.86-2.169,8.429-6.971.072-.676-1-.676-1.067,0-.32,2.774-4.73,2.489-6.58,3.592a3.4,3.4,0,0,0-1.565,1.742c-.356.925-.072,1.956-.356,2.881-.533,1.743-2.525,1.067-3.806,1.6a4.13,4.13,0,0,0-1.565,1.245,4.339,4.339,0,0,0-.462,4.73c.32.64,1.245.107.925-.5Z" transform="translate(-277.011 -862.003)"/></g><g transform="translate(0 51.725)"><path class="b" d="M216.268,511.982c-1-2.739-1.316-6.4,1.565-8.145,2.739-1.636,5.37.889,5.655,3.592a5.64,5.64,0,0,1-3.734,5.8,4.425,4.425,0,0,1-5.513-3.414c-.107-.676-1.138-.391-1.031.284a5.472,5.472,0,0,0,6.829,4.161A6.636,6.636,0,0,0,224.519,507c-.5-3.095-3.45-5.726-6.615-4.339-3.841,1.636-3.877,6.26-2.632,9.639a.523.523,0,0,0,1-.32Z" transform="translate(-213.202 -502.283)"/></g><g transform="translate(3.517 45.679)"><path class="b" d="M223.188,500.9c-4.268-.783-2.241-7.718.925-8.536,2.7-.711,3.663,2.49,3.2,4.552a8.4,8.4,0,0,1-.889,2.383c-.534.96-2.348,2.881-3.2.854-.285-.64-1.173-.071-.925.533A2.276,2.276,0,0,0,224.859,502c1.316-.249,2.134-1.494,2.7-2.632,1.244-2.6,1.636-6.437-1.458-7.9-5.228-2.489-9.638,9.319-3.237,10.457.676.107,1-.889.32-1.031Z" transform="translate(-219.69 -491.128)"/></g><g transform="translate(277.718 241.361)"><path class="c" d="M726.938,860.432c-1.458-2.881,2.774-4.659,4.019-1.743a.509.509,0,0,0,.6.249c1.565-.6,2.17-1.885,2.952-3.272.569-1.031,1.209-2.312,2.561-2.418a2.643,2.643,0,0,1,2.7,2.881c-.071.676,1,.676,1.067,0a3.662,3.662,0,0,0-4.232-3.877c-2.988.6-2.738,4.695-5.3,5.691.213.072.391.178.6.249-1.814-4.233-7.931-1.281-5.868,2.845.285.533,1.209,0,.889-.6Z" transform="translate(-725.629 -852.187)"/></g><g transform="translate(267.069 73.815)"><path class="c" d="M707.41,543.206a5.419,5.419,0,0,0-1.067,5.62,5.122,5.122,0,0,0,1.707,2.17c1.138.889,3.414,1.742,2.988,3.45-.356,1.6-2.419,3.13-.32,4.553a10.855,10.855,0,0,0,2.809.925,2.677,2.677,0,0,1,1.281,4.446c-.462.5.285,1.244.747.747a3.813,3.813,0,0,0,.355-4.837,3.76,3.76,0,0,0-2.134-1.388c-.534-.178-1.1-.249-1.636-.426-1.245-.391-1.281-1.352-.747-2.454.391-.854.96-1.423.747-2.419a3.61,3.61,0,0,0-1.387-1.921c-1.067-.854-2.455-1.423-3.2-2.632a4.346,4.346,0,0,1,.534-5.051c.533-.533-.214-1.28-.676-.782Z" transform="translate(-705.979 -543.042)"/></g><g transform="translate(278.694 86.121)"><path class="c" d="M728.936,565.77a2.066,2.066,0,0,0-1.494,2.312c.142,1.459,1.458,2.205,2.561,2.916a2.427,2.427,0,0,1,1.387,1.814,4.1,4.1,0,0,1,0,1.743,1.994,1.994,0,0,0,.391,1.245,5.636,5.636,0,0,0,1.458,1.1,3,3,0,0,1,1.174,3.7c-.249.64.782.925,1.031.285a4.029,4.029,0,0,0-.143-3.272c-.569-1.138-2.81-1.992-2.845-3.2,0-.533.355-1,.285-1.565a2.9,2.9,0,0,0-.533-1.281,6.6,6.6,0,0,0-1.743-1.529c-.782-.5-3.379-2.7-1.316-3.272a.51.51,0,1,0-.214-1Z" transform="translate(-727.43 -565.749)"/></g><g transform="translate(158.645 182.575)"><path class="b" d="M507.228,747.833a2.027,2.027,0,0,1,1.1-2.987,2.5,2.5,0,0,1,2.525,1c1.28,1.921-1.814,3.771-3.308,2.454-.5-.462-1.281.285-.747.747,2.489,2.2,7.078-.96,4.872-3.912a3.6,3.6,0,0,0-3.983-1.209,3.116,3.116,0,0,0-1.351,4.41c.32.64,1.209.107.889-.5Z" transform="translate(-505.922 -743.719)"/></g><g transform="translate(158.845 175.077)"><path class="c" d="M508.144,738.366c-.925-1.849-1.245-4.161.036-5.939a3.377,3.377,0,0,1,5.086-.64,4.384,4.384,0,0,1,.285,5.477,4.868,4.868,0,0,1-5.726,1.636c-.641-.249-.925.783-.284,1.031a5.85,5.85,0,0,0,6.935-2.1c1.387-2.134,1.351-5.3-.641-7.007a4.531,4.531,0,0,0-6.01.462c-2.1,2.028-1.779,5.264-.6,7.682.32.533,1.209,0,.925-.6Z" transform="translate(-506.292 -729.884)"/></g><g transform="translate(337.939 113.302)"><path class="b" d="M837.691,624.663c3.236-2.6,6.508-5.228,9.745-7.825-.32-.142-.6-.249-.925-.391a19.928,19.928,0,0,1-1.992,6.687.554.554,0,0,0,.747.747,110.231,110.231,0,0,1,12.057-6.651l-.747-.747a17.972,17.972,0,0,0-2.952,7.007.545.545,0,0,0,.782.6c3.521-2.063,7.007-4.126,10.528-6.189-.249-.214-.533-.391-.782-.6-.427,2.1-.818,4.162-1.245,6.26-.143.676.889.96,1.031.285.426-2.1.818-4.161,1.245-6.26a.546.546,0,0,0-.782-.6c-3.521,2.063-7.007,4.125-10.528,6.189.249.213.533.391.783.6a17.477,17.477,0,0,1,2.845-6.758c.32-.462-.285-.925-.747-.747A110.378,110.378,0,0,0,844.7,622.92l.747.747a21.608,21.608,0,0,0,2.134-7.255c.071-.5-.6-.64-.925-.391-3.237,2.6-6.509,5.228-9.745,7.824-.5.5.249,1.245.783.818Z" transform="translate(-836.745 -615.901)"/></g><g transform="translate(351.683 121.173)"><path class="b" d="M862.892,638.108c2.419-1.529,4.8-3.059,7.185-4.588-.285-.143-.534-.32-.818-.463a20.862,20.862,0,0,1-1.245,4.873c-.178.462.391.818.783.6a126.776,126.776,0,0,0,11.524-7.113c-.249-.214-.534-.391-.783-.6-.712,1.707-1.423,3.414-2.134,5.086-.249.641.783.925,1.031.285.712-1.707,1.423-3.414,2.134-5.086.178-.427-.426-.854-.783-.6-3.734,2.561-7.576,4.944-11.523,7.113.249.213.533.391.782.6a23.258,23.258,0,0,0,1.281-5.157.551.551,0,0,0-.818-.462c-2.383,1.529-4.8,3.059-7.185,4.588-.533.391,0,1.28.569.925Z" transform="translate(-862.103 -630.423)"/></g><circle class="c" cx="6.011" cy="6.011" r="6.011" transform="translate(138.895 225.812)"/></g><g transform="translate(352.666 444.217)"><g transform="translate(48.909 199.18)"><path d="M613.705,1054.474c.391,2.383.782,4.766,1.173,7.113a65.064,65.064,0,0,1-11.452,10.1c-3.308,2.276-7.967,5.015-12.021,10.705-.533.747-.925,1.352-1.174,1.778,3.948-1.138,7.932-2.276,11.879-3.415q13.231-3.841,26.426-7.717c-1.423-8.927-2.881-17.819-4.3-26.746C620.712,1049.033,617.226,1051.735,613.705,1054.474Z" transform="translate(-590.011 -936.287)"/><path class="d" d="M594.628,844.027c.071,2.241.214,5.477.5,9.39.391,5.94,1.458,19.526,6.971,48.086,3.912,20.238,7.967,37.31,12.022,54.346.6,2.525,1.1,4.588,1.458,6.011,3.841-.712,7.682-1.458,11.524-2.169-.534-3.841-1.281-9.6-2.169-16.575-3.414-27.066-5.549-44.28-6.509-64.695-.391-8.5-.676-20.522-.249-35.1Q606.383,843.636,594.628,844.027Z" transform="translate(-592.025 -843.316)"/><path class="e" d="M618.384,851.453c.356,2.561.889,6.438,1.529,11.1,2.454,17.57,4.375,30.516,4.766,33.29,1.671,11.239,4.375,31.014,9,68.288,1.387-.142,2.81-.249,4.2-.391-.6-3.877-1.494-9.887-2.49-17.214-2.347-17.427-5.441-40.617-6.508-69.639-.214-5.8-.427-14.156-.391-24.292C625.142,852.236,621.763,851.844,618.384,851.453Z" transform="translate(-602.906 -847.043)"/><g transform="translate(1.962 0.773)"><path class="f" d="M593.446,845.25c2.454,32.721,8.927,64.944,16.289,96.884,2.1,9.14,4.268,18.245,6.473,27.386.142.676,1.174.391,1.031-.284-7.576-31.726-15.187-63.522-19.668-95.852-1.316-9.354-2.312-18.708-3.023-28.133-.071-.676-1.138-.676-1.1,0Z" transform="translate(-593.445 -844.743)"/></g><g transform="translate(25.187 5.966)"><path class="f" d="M636.3,854.831a644.651,644.651,0,0,0,7.967,101.685c1.529,9.6,3.272,19.135,5.228,28.667.142.676,1.173.391,1.031-.285A646.7,646.7,0,0,1,638.007,883.6c-.427-9.6-.6-19.17-.6-28.773a.553.553,0,0,0-1.1,0Z" transform="translate(-636.299 -854.324)"/></g><g transform="translate(0 124.96)"><path class="f" d="M614.765,1074.011c-4.624,3.877-9.212,7.789-13.836,11.666-3.912,3.307-8.287,6.473-11.025,10.919a.533.533,0,0,0,.6.782q19.26-5.6,38.519-11.168a.535.535,0,0,0-.285-1.031q-19.259,5.6-38.519,11.168c.214.249.391.534.6.783,2.774-4.553,7.362-7.789,11.381-11.168,4.446-3.735,8.856-7.469,13.3-11.2.533-.427-.249-1.174-.747-.747Z" transform="translate(-589.826 -1073.884)"/></g></g><g transform="translate(82.415 188.119)"><path d="M687.867,1050.691c1.6,5.015,3.166,9.994,4.766,15.009-3.7,2.6-6.936,4.909-9.639,6.9-5.833,4.232-8.109,6.01-10.741,8.571-1.814,1.778-3.2,3.343-4.126,4.446,3.557-.569,11.559-1.885,19.775-3.663,6.793-1.494,5.548-1.529,8.429-1.992a21.8,21.8,0,0,0,6.9-1.849,17.123,17.123,0,0,0,2.454-1.387c-.142-1.352-.285-2.739-.462-4.125a122.548,122.548,0,0,0-4.446-20.38C696.439,1051.687,692.171,1051.188,687.867,1050.691Z" transform="translate(-659.197 -927.239)"/><path class="d" d="M652.247,838.271c.711,5.264,1.814,12.413,3.414,20.807,1.209,6.331,3.983,20.059,9.105,37.914,4.019,14.013,5.3,15.9,12.839,40.19,2.49,8,4.446,14.547,5.691,18.815,3.7-1.031,7.4-2.1,11.1-3.13-.747-3.984-1.849-9.923-3.13-17.108-4.41-24.789-8.464-47.41-11.381-74.369-1.031-9.425-2.276-22.585-3.13-38.484Q664.482,830.536,652.247,838.271Z" transform="translate(-651.923 -822.906)"/><g transform="translate(0 16.259)"><path class="f" d="M651.653,853.577c4.339,32.33,14.049,63.593,24.043,94.536L684.445,975c.214.64,1.245.356,1.032-.285-10.137-31.157-20.949-62.277-27.991-94.323-1.957-8.963-3.592-18-4.837-27.1-.071-.676-1.067-.391-1,.284Z" transform="translate(-651.649 -852.906)"/></g><g transform="translate(24.437 5.269)"><path class="f" d="M696.74,833.156a924.015,924.015,0,0,0,14.9,111.288c2.063,10.421,4.268,20.806,6.687,31.156.143.676,1.174.391,1.031-.285a920.7,920.7,0,0,1-18.708-110.4c-1.138-10.563-2.063-21.126-2.845-31.725-.035-.747-1.1-.747-1.067-.036Z" transform="translate(-696.739 -832.627)"/></g><g transform="translate(8.041 138.473)"><path class="f" d="M691.277,1078.5c-8.75,5.726-17.57,11.559-24.648,19.348a.543.543,0,0,0,.533.889c8.394-1.672,16.787-3.379,25.146-5.051,2.063-.427,4.126-.818,6.189-1.245a21.549,21.549,0,0,0,4.908-1.209c1.885-.89,3.059-3.166,1.494-4.908-.462-.534-1.209.249-.747.747,2.881,3.307-6.188,4.41-7.647,4.694-3.343.676-6.651,1.352-9.994,2.028l-19.633,3.948c.178.284.356.6.534.889,7.042-7.718,15.756-13.516,24.434-19.206.534-.391,0-1.316-.569-.924Z" transform="translate(-666.486 -1078.407)"/></g><path class="g" d="M684.666,855.886c.462,3.13,1.707,11.7,2.169,14.9,6.936,47.8,8.82,61.673,13.693,81.269.96,3.841,2.312,9.034,4.09,15.151,1.6-.5,3.2-.96,4.8-1.458-.641-3.486-1.529-8.679-2.632-14.9-4.872-27.6-7.326-41.364-8.643-50.006-1.885-12.128-4.125-29.271-5.512-50.5C689.965,852.187,687.3,854.036,684.666,855.886Z" transform="translate(-666.772 -835.47)"/></g><g transform="translate(47.333 139.499)"><path class="b" d="M595.009,733.2a155.35,155.35,0,0,0-4.98,18.85,161.114,161.114,0,0,0-2.24,48.264,82.573,82.573,0,0,0,12.413,4.375c5.9,1.529,16.289,4.161,29.165,2.027a61.682,61.682,0,0,0,21.126-7.718,206.873,206.873,0,0,0-12.484-65.513Q616.509,733.375,595.009,733.2Z" transform="translate(-586.917 -733.197)"/><path class="e" d="M664.322,734.666c1.174,3.13,2.24,6.4,3.2,9.852,6.544,23.652,4.8,45.454,1.316,61.957a59.183,59.183,0,0,0,10.386-3.735,61.141,61.141,0,0,0,6.367-3.45c.071-5.015-.072-10.349-.534-15.934a167.28,167.28,0,0,0-11.95-49.437C670.19,734.133,667.274,734.417,664.322,734.666Z" transform="translate(-622.371 -733.528)"/></g><g transform="translate(0 62.474)"><path class="d" d="M562.334,592.366a35.568,35.568,0,0,0-3.521,2.916,36.758,36.758,0,0,0-7.184,9.319c-1.849,3.556-2.561,6.58-3.663,11.452-1.281,5.548-1.067,7.469-3.059,10.065a14.435,14.435,0,0,1-5.513,4.268,17.511,17.511,0,0,1-8.109,1.672,21.443,21.443,0,0,1-9.176-1.992c-.391.5-.818,1.031-1.209,1.529-1.138-.569-2.881-1.423-5.051-2.276-4.268-1.707-6.437-2.561-9-2.276-.533.071-5.086.6-6.117,3.521a3.176,3.176,0,0,0,.462,3.2c.925.783,2.7.356,4.268,0,1.316-.285,1.956-.64,2.738-.32a2.478,2.478,0,0,1,1.209,1.387c1.1,2.276.391,4.055.747,7.789.178,2.027.32,3.094,1.067,3.663.249.214,1.138.783,5.051-.32a30.048,30.048,0,0,0,5.8-2.276c-.142.96-.32,1.92-.463,2.916a64.337,64.337,0,0,0,10.243,1.671c6.3.534,10.6.889,15.721-.925a26.76,26.76,0,0,0,11.132-7.647,28.22,28.22,0,0,0,5.513-9.923C569.234,615.377,563.258,595.424,562.334,592.366Z" transform="translate(-500.01 -591.667)"/><path class="g" d="M573.266,601.619c-.284,2.418-.782,5.975-1.529,10.243-1.636,9.105-2.419,13.658-4.731,18.317-1.316,2.632-4.2,8.5-10.243,12.377-10.421,6.687-22.8,2.738-25.039,1.992-3.663,1.85-7.326,3.663-10.99,5.513a12.246,12.246,0,0,0,3.521.142,13.979,13.979,0,0,0,6.722-2.454v3.343a62.88,62.88,0,0,0,10.243,1.529c6.082.391,10.563.676,15.72-1.209a27.845,27.845,0,0,0,14.191-12.377c2.49-4.481,2.952-8.358,3.521-13.729A74.947,74.947,0,0,0,573.266,601.619Z" transform="translate(-509.27 -595.905)"/><g transform="translate(42.789)"><path class="f" d="M597.784,591.17a35.12,35.12,0,0,0-12.342,15.9c-2.774,7.292-2.739,15.472-6.829,22.265a.534.534,0,0,0,.925.533c3.734-6.224,4.09-13.551,6.188-20.344a33.886,33.886,0,0,1,12.591-17.428c.569-.391.035-1.316-.534-.925Z" transform="translate(-578.534 -591.075)"/></g><g transform="translate(21.241 38.044)"><path class="f" d="M539.205,661.805a93.21,93.21,0,0,1-.427,15.436c-.071.676,1,.676,1.067,0a86.03,86.03,0,0,0,.427-15.436c-.035-.711-1.1-.711-1.067,0Z" transform="translate(-538.775 -661.272)"/></g><g transform="translate(21.384 31.317)"><path class="f" d="M539.4,656.618c5.122,1.636,10.848,2.774,16.112,1.031a13.738,13.738,0,0,0,8.856-8.145c.249-.64-.783-.925-1.031-.284a12.84,12.84,0,0,1-9.105,7.682c-4.837,1.245-9.888.178-14.511-1.316a.54.54,0,0,0-.32,1.031Z" transform="translate(-539.038 -648.859)"/></g><g transform="translate(21.275 40.054)"><path class="f" d="M539.2,680.079c8.216,2.169,18,3.45,26.32,1,7.54-2.24,12.341-8.678,15.934-15.294.32-.6-.6-1.138-.925-.533-3.592,6.58-8.322,12.946-15.9,14.973-8,2.134-17.25.925-25.146-1.138-.64-.214-.925.818-.285,1Z" transform="translate(-538.837 -664.981)"/></g><g transform="translate(0 34.767)"><path class="f" d="M521.111,659.569c-2.169.035-4.339-1.458-6.295-2.348a24.274,24.274,0,0,0-4.659-1.671,9.578,9.578,0,0,0-8.251,1.458c-1.458,1.173-3.272,3.877-1.743,5.655a4.123,4.123,0,0,0,2.881,1.174c1.316.035,4.8-2.1,5.441-.462.249.64,1.281.356,1.032-.285-.641-1.671-2.276-1.671-3.771-1.1-1.458.534-5.193,1.921-5.015-1.387.072-1.423,1.743-2.81,2.881-3.45,3.166-1.707,7.007-.6,10.065.747,2.312,1.031,4.837,2.81,7.433,2.774a.551.551,0,0,0,0-1.1Z" transform="translate(-499.582 -655.224)"/></g><g transform="translate(11.255 51.678)"><path class="f" d="M520.736,689.653a12.223,12.223,0,0,0,9.923-2.205c.533-.391,0-1.316-.533-.925a11.284,11.284,0,0,1-9.105,2.1c-.676-.142-.96.889-.285,1.031Z" transform="translate(-520.35 -686.429)"/></g></g><g transform="translate(50.593 53.735)"><path class="d" d="M618.581,577.645h-5.513v3.308a19.4,19.4,0,0,0-5.335,1.636,17.43,17.43,0,0,0-3.841,2.561c-1.245,6.686-2.525,12.057-3.486,15.791-1.423,5.442-2.205,7.718-2.383,11.915-.142,3.165.249,3.556.355,9.709.036,2.668.107,5.975-.178,9.923-.213,2.845-.5,4.943-1.458,10.812-1.707,10.385-1.957,10.99-2.383,13.942a81.712,81.712,0,0,0-.533,17.819,40.006,40.006,0,0,0,4.054,2.383c3.308,1.742,4.979,2.134,7.718,3.485a36.1,36.1,0,0,1,6.047,3.841c.747-5.513,1.458-11.025,2.2-16.5,1,5.868,1.957,11.737,2.952,17.606a44.816,44.816,0,0,0,6.971,0c3.806-.284,11.026-.96,17.605-5.691a20.969,20.969,0,0,0,5.335-5.335,17.132,17.132,0,0,0,2.561-6.615c-.569-3.237-1.245-7.754-1.85-13.231a223.916,223.916,0,0,1-1.1-23.3c-.071-8.429,0-19.42.533-32.472,1.174-3.806,2.312-7.576,3.486-11.381a61.372,61.372,0,0,0-19.989-8.429c.071-1.352.107-2.7.178-4.054a13.9,13.9,0,0,1-7.9,2.739A11.355,11.355,0,0,1,618.581,577.645Z" transform="translate(-593.228 -575.142)"/><path class="h" d="M671.868,630.034c-.818,2.632-2.027,6.865-3.308,12.128-4.694,19.455-3.912,28.2-6.971,40.368a89.518,89.518,0,0,1-13.017,28.453,43.18,43.18,0,0,0,11.026-2.561c4.3-1.636,8.607-3.272,11.737-7.54a18.259,18.259,0,0,0,3.307-7.9c-1.067-6.118-1.956-12.591-2.561-19.455A244.162,244.162,0,0,1,671.868,630.034Z" transform="translate(-618.417 -600.18)"/><path class="i" d="M644.461,582.577c-.391.143.107,1.529-.534,3.664a9.191,9.191,0,0,1-1.458,2.739c2.1.854,4.161.783,4.944-.178C648.906,586.987,645.279,582.293,644.461,582.577Z" transform="translate(-615.622 -578.438)"/><path class="i" d="M626.117,745.469c-.712,2.134-1.387,4.482-2.027,6.971a79.32,79.32,0,0,0-1.636,8.429c1,.534,1.956,1.1,2.952,1.636C625.654,756.85,625.9,751.16,626.117,745.469Z" transform="translate(-606.454 -653.053)"/><g transform="translate(19.197 2.076)"><path class="f" d="M634.083,578.781a42.394,42.394,0,0,0-5.193.32c-.249.036-.569.214-.534.533.178,1.6.356,3.2.534,4.837.071.676,1.138.676,1.067,0-.178-1.6-.355-3.2-.533-4.837l-.533.534a35.991,35.991,0,0,1,5.193-.32.534.534,0,0,0,0-1.067Z" transform="translate(-628.354 -578.781)"/></g><g transform="translate(19.64 2.642)"><path class="f" d="M629.336,580.718a7.324,7.324,0,0,1,2.454,4.482c.107.675,1.138.391,1.031-.285a8.4,8.4,0,0,0-2.738-4.944c-.5-.462-1.245.285-.747.747Z" transform="translate(-629.172 -579.826)"/></g><g transform="translate(10.278 4.972)"><path class="f" d="M612.675,589.586a26.368,26.368,0,0,1,8.963-4.41.535.535,0,0,0-.285-1.032,27.827,27.827,0,0,0-9.212,4.517c-.569.427-.036,1.352.533.925Z" transform="translate(-611.898 -584.124)"/></g><g transform="translate(38.837 3.621)"><path class="f" d="M664.979,582.683a50.9,50.9,0,0,1,17.428,8.607c.533.427,1.067-.5.533-.925a52.3,52.3,0,0,0-17.677-8.714.535.535,0,0,0-.285,1.031Z" transform="translate(-664.593 -581.631)"/></g><g transform="translate(4.438 22.048)"><path class="f" d="M604.929,615.9c-7.113,15.294-1.921,32.294-2.739,48.406-.036.675,1.031.675,1.067,0,.782-15.863-4.41-32.793,2.6-47.873.285-.6-.64-1.138-.924-.533Z" transform="translate(-601.122 -615.631)"/></g><g transform="translate(0 52.541)"><path class="f" d="M597.657,672.4c.32,8.038-1.992,15.791-3.343,23.652a114.591,114.591,0,0,0-1.28,23.153c.035.676,1.1.676,1.067,0a112.24,112.24,0,0,1,1.458-24.185c1.387-7.5,3.45-14.9,3.13-22.585,0-.711-1.067-.711-1.031-.035Z" transform="translate(-592.933 -671.895)"/></g><g transform="translate(0.176 99.312)"><path class="f" d="M593.5,759.193a52.023,52.023,0,0,0,8.572,4.553,38.454,38.454,0,0,1,9.212,5.157c.533.427,1.067-.5.533-.925a33.464,33.464,0,0,0-8.251-4.766A53.977,53.977,0,0,1,594,758.3c-.533-.427-1.067.5-.5.889Z" transform="translate(-593.258 -758.194)"/></g><g transform="translate(18.236 91.269)"><path class="f" d="M627.652,761.643c.569-5.94,1.1-11.879,1.672-17.784.071-.675-1-.675-1.067,0-.569,5.94-1.1,11.879-1.671,17.784-.072.676,1,.676,1.067,0Z" transform="translate(-626.582 -743.353)"/></g><g transform="translate(20.015 91.504)"><path class="f" d="M629.866,744.307a154.873,154.873,0,0,0,2.916,18.921c.143.676,1.174.391,1.031-.285a150.277,150.277,0,0,1-2.88-18.637c-.072-.676-1.139-.712-1.067,0Z" transform="translate(-629.863 -743.787)"/></g><g transform="translate(23.246 97.959)"><path class="f" d="M636.331,769.324a44.974,44.974,0,0,0,18.6-3.237c4.73-1.921,10.172-4.659,12.057-9.746.249-.64-.783-.925-1.031-.285-1.921,5.193-8.216,7.932-13.053,9.674a44.666,44.666,0,0,1-16.574,2.561c-.675-.035-.675,1.032,0,1.032Z" transform="translate(-635.825 -755.696)"/></g><g transform="translate(52.369 28.956)"><path class="f" d="M690.215,628.885a330.88,330.88,0,0,0,2.169,63.913c.107.675,1.173.675,1.067,0a325.5,325.5,0,0,1-2.17-63.913c.036-.676-1.031-.676-1.067,0Z" transform="translate(-689.56 -628.378)"/></g><g transform="translate(52.197 92.171)"><path class="f" d="M692.346,745.4a20.233,20.233,0,0,1-3.023,8.109c-.356.569.569,1.1.925.533a20.753,20.753,0,0,0,3.13-8.358c.107-.676-.925-.96-1.031-.285Z" transform="translate(-689.243 -745.018)"/></g><g transform="translate(22.469 8.579)"><path class="f" d="M634.536,591.711a4.82,4.82,0,0,0,3.592,1.707.534.534,0,0,0,0-1.067,3.793,3.793,0,0,1-2.845-1.387c-.462-.534-1.209.213-.747.747Z" transform="translate(-634.391 -590.78)"/></g><g transform="translate(21.113 12.624)"><path class="f" d="M636.556,598.614c-6.865,23.3-1.174,47.8-4.659,71.524-.107.676.925.96,1.031.285,3.486-23.723-2.17-48.228,4.659-71.524.214-.676-.818-.925-1.031-.285Z" transform="translate(-631.889 -598.243)"/></g><g transform="translate(22.127 15.249)"><path class="f" d="M634.746,604.069h0c-.035,0-.035,0,.036.036-.036-.036-.036-.036,0,.035,0-.035,0-.071-.036-.071.036.071.071.071,0,0,.036-.036.036-.036.036.036,0-.036,0-.036-.036-.036.036.036.036.071,0,0,.036-.071.036-.036,0,0,.036-.036.036,0,0,.036.036-.036.036-.036-.035,0,.035-.036.035-.036-.036,0h-.143l.071.071h0V604.1c0-.036.035-.072.071-.107h0c.035-.036.071-.036.142-.036h.036c-.071-.036-.036,0,.036,0-.036,0-.036-.036-.072-.036.072.036.072.036.036,0,.036.072.036.072,0,.036s-.036-.036,0,.036v.035c0,.072-.036.107,0,.036-.036.071-.036.071,0,.036a.56.56,0,0,0-.178-.747.6.6,0,0,0-.747.178.983.983,0,0,0,.818,1.458.877.877,0,0,0,.818-.427,1,1,0,0,0-.036-1,.951.951,0,0,0-1.636-.035,1.049,1.049,0,0,0,.64,1.529.538.538,0,0,0,.641-.356.609.609,0,0,0-.427-.64Z" transform="translate(-633.761 -603.086)"/></g><g transform="translate(20.506 26.666)"><path class="f" d="M631.918,625.313c0-.213-.036-.427-.036-.64a5.989,5.989,0,0,1-.391.5c.071,0,.071-.035.036,0h.035c-.107-.035.071,0-.035,0a.035.035,0,0,1,.035.036h0v.036c-.035-.036,0-.036,0-.072,0,.072-.035.072,0,0l-.071.072c.036,0,.107,0,0-.036.143.036.249.107.391.142a.357.357,0,0,1-.036-.106v-.107a.535.535,0,0,0-1.031-.284,1.312,1.312,0,0,0,.32,1.28c.391.391,1.1.036,1.352-.356a1.074,1.074,0,0,0-1.245-1.565c-.214.072-.427.284-.391.5,0,.214.035.427.035.64a.547.547,0,0,0,.534.534.648.648,0,0,0,.5-.569Z" transform="translate(-630.769 -624.152)"/></g><g transform="translate(19.868 36.86)"><path class="f" d="M630.667,644.207c-.071-.106,0,.036-.036-.071V644.1h0a.035.035,0,0,1,.036-.036l.036-.036-.036.036c-.143-.036-.285-.036-.427-.071-.107-.072.035.071-.036-.036h0v.107c-.036.107.036-.036-.036.036s.072-.036-.035.035c.071-.035.035,0,0,0-.071,0,.178-.035.035,0l.534.533c0-.213-.036-.426-.036-.64a.534.534,0,0,0-1.067,0c0,.214.036.427.036.64a.547.547,0,0,0,.533.534,1.219,1.219,0,0,0,.96-1.814.817.817,0,0,0-.6-.427.9.9,0,0,0-.641.356,1.18,1.18,0,0,0-.142,1.351.517.517,0,1,0,.925-.462Z" transform="translate(-629.593 -642.962)"/></g><g transform="translate(19.669 46.599)"><path class="f" d="M630.285,661.792c.036.071.071.107.071.178V662c.036-.106-.035.107,0,0,.036-.071-.035.072,0,0,0-.035.107-.071,0,0h-.142c.107,0-.071-.071,0,0l-.178-.178a.689.689,0,0,1,0,.534l.355-.356h.036c.035.036.035.036,0,.036-.036-.036,0-.036,0,.036h0a.509.509,0,0,0-.356-.641.538.538,0,0,0-.64.356.978.978,0,0,0,.747,1.245.7.7,0,0,0,.462-.036.532.532,0,0,0,.391-.5,1.763,1.763,0,0,0-.035-.96.8.8,0,0,0-.676-.6.96.96,0,0,0-.747.249.927.927,0,0,0-.107,1.352.549.549,0,0,0,.747,0,.471.471,0,0,0,.071-.747Z" transform="translate(-629.225 -660.931)"/></g><g transform="translate(19.604 54.928)"><path class="f" d="M630.266,677.189c-.036-.036-.036-.072,0,0l-.036-.072c0,.072.036-.071,0,.036-.142.071-.32.178-.462.249h.036c-.071-.035-.071-.035-.036,0s.036,0-.035-.035c.071.107-.036-.107.035.035.036.036.036.142,0,.036,0,.036.036.142,0,.036v.035c0,.036-.071.107,0,.036,0-.036.036-.036.036-.071h0c.107-.036.178-.036.284-.072-.107,0,.071.036.071.036l.036.036-.036-.036a.161.161,0,0,1,0,.178.57.57,0,0,0-.178-.747.561.561,0,0,0-.747.178.89.89,0,0,0,.285,1.174.933.933,0,0,0,.747.142.777.777,0,0,0,.427-.462,1.149,1.149,0,0,0-1-1.6.555.555,0,0,0-.462.249,1.081,1.081,0,0,0,.213,1.316c.569.569,1.316-.213.818-.675Z" transform="translate(-629.104 -676.3)"/></g><g transform="translate(19.487 63.629)"><path class="f" d="M629.953,693.043a.279.279,0,0,1,.107.071.035.035,0,0,0-.036-.035c.036.035.036.071,0,.035h0v-.035c0,.071,0,.107-.071.142-.178.036-.356.107-.533.142.107.035-.071-.036,0,0-.071-.036-.071-.072-.036,0l-.035-.036c0,.036.035.036.035.071,0-.035,0-.035-.035-.071,0,.036,0,.036.035.071v.036h0c.036-.036,0-.036,0,0,.036-.071.071-.071.036-.036s0,.036.035-.035c-.035.035-.035.035.036,0,.214.071.391.178.6.249h0v.071c0-.071.035-.071,0,0,0,.036-.036.036-.071.071a.543.543,0,1,0-.569-.924.971.971,0,0,0-.32,1.316.578.578,0,0,0,.6.249,1.007,1.007,0,0,0,.676-1.031,1.034,1.034,0,0,0-.747-1,.594.594,0,0,0-.533.143,1,1,0,0,0,.427,1.6.509.509,0,0,0,.641-.356.479.479,0,0,0-.249-.711Z" transform="translate(-628.889 -692.354)"/></g><g transform="translate(18.794 73.705)"><path class="f" d="M628.763,711.8a.323.323,0,0,1-.035.178l-.036.036h0c-.035.035-.107.035-.035.035-.072,0-.285-.071-.178,0-.071-.106-.178-.213-.249-.32,0,.035.036.071.036.107h0v.107c0-.072,0,0-.036.035-.035.071.036-.071,0,.036,0,0-.071.071-.035.071-.036.036-.072.036-.107.071a5.518,5.518,0,0,0,.747.178.758.758,0,0,1-.107-.178c-.036-.071,0-.071-.036,0s-.035.178-.107.214c-.178.143-.426-.071-.5-.249a.518.518,0,0,0,1-.284.759.759,0,0,0-1.174-.356c-.462.356-.32.925-.035,1.352a.529.529,0,0,0,.747.178,1.347,1.347,0,0,0,.64-.818,1.036,1.036,0,0,0-.213-1.067.905.905,0,0,0-1.387.96c.249.676,1.281.391,1.1-.284Z" transform="translate(-627.61 -710.945)"/></g><g transform="translate(18.325 84.235)"><path class="f" d="M627.692,731.691a3.554,3.554,0,0,1,.249-.533c-.107.071-.214.178-.32.249-.071.036-.107,0-.178-.036h0a.292.292,0,0,1-.035-.249c.035-.071.071-.107.142-.107h.036a.131.131,0,0,1,.107.036.57.57,0,0,0-.747.178.561.561,0,0,0,.178.747c.675.356,1.565-.284,1.244-1.031a.932.932,0,0,0-.818-.569.578.578,0,0,0-.569.356,1.8,1.8,0,0,0-.178.462.611.611,0,0,0,.178.747.625.625,0,0,0,.712-.249Z" transform="translate(-626.745 -730.375)"/></g><g transform="translate(27.25 0.9)"><path class="f" d="M649.461,576.648c-1.21.391-2.383.783-3.593,1.174-.569.178-1.494.32-1.813.889-.284.5-.036.925.071,1.423a5.32,5.32,0,0,1-.818,4.055c-.391.569.534,1.1.925.533a6.212,6.212,0,0,0,1.031-4.339c0-.071-.285-.889-.214-1,.178-.391,1.281-.6,1.636-.711,1.031-.355,2.027-.676,3.059-1.031.64-.214.356-1.245-.284-1Z" transform="translate(-643.213 -576.61)"/></g><g transform="translate(28.444 2.893)"><path class="f" d="M645.561,581.214a8.16,8.16,0,0,1,2.063,4.09c.142.676,1.173.391,1.031-.285a8.914,8.914,0,0,0-2.347-4.552c-.463-.534-1.21.249-.747.747Z" transform="translate(-645.416 -580.289)"/></g><g transform="translate(32.071)"><path class="f" d="M652.93,577.382a18.5,18.5,0,0,1,4.517-1.423,7.941,7.941,0,0,0-.676-.5,7.679,7.679,0,0,1-.675,4.09c-.285.6.64,1.173.924.533a8.334,8.334,0,0,0,.818-4.623.54.54,0,0,0-.676-.5,18.633,18.633,0,0,0-4.765,1.529c-.641.249-.107,1.173.533.889Z" transform="translate(-652.107 -574.95)"/></g><g transform="translate(37.024 3.336)"><path class="f" d="M661.633,582.158a8.007,8.007,0,0,0,2.241.214.534.534,0,0,0,0-1.067,8.926,8.926,0,0,1-1.957-.178.535.535,0,0,0-.285,1.031Z" transform="translate(-661.246 -581.106)"/></g></g><g transform="translate(73.142 65.633)"><path class="d" d="M669.354,598.534c1.458,0,2.241,2.952,4.055,7.327,3.877,9.5,5.8,14.226,6.615,17.25a87.148,87.148,0,0,1,2.952,22.194,55.261,55.261,0,0,1-5.335,9.177A46.456,46.456,0,0,1,663.7,667.889a42.155,42.155,0,0,1-10.634,4.588q-.373-2.667-.747-5.335c-.782.391-1.92,1.031-3.308,1.849-2.205,1.316-2.7,1.779-3.663,2.205a9.535,9.535,0,0,1-6.047.356c-1.458-4.232-2.667-7.718-3.663-10.456-.32-.925-.96-2.6-.178-4.055a3.637,3.637,0,0,1,1.636-1.458,8.737,8.737,0,0,1-.925-2.739c-.106-.818-.178-1.387.178-1.85a2.3,2.3,0,0,1,2.027-.533c-.249-1.672-.5-3.415-.747-5.122-.64-4.873-1.138-9.567-1.458-14.12,1.529-.925,3.059-1.85,4.588-2.739q11.364-6.776,22.585-12.84a35.613,35.613,0,0,1,.355-3.663,34.544,34.544,0,0,1,.925-4.588C664.766,606.608,666.936,598.534,669.354,598.534Z" transform="translate(-634.79 -597.651)"/><path class="j" d="M671.3,597.878a102.316,102.316,0,0,1,4.411,13.017c2.24,8.5,4.481,16.645,3.13,26.782-.712,5.228-1.529,11.452-6.224,17.428a30.226,30.226,0,0,1-17.25,10.456,12.405,12.405,0,0,0-5.513-1.28,13.514,13.514,0,0,0-9.354,4.054c.427,1,.854,1.957,1.28,2.952a10.431,10.431,0,0,0,5.122-.533c2.027-.783,2.952-1.992,5.869-3.13a18.481,18.481,0,0,1,2.383-.747c.072,1.458.107,2.952.178,4.41a30.273,30.273,0,0,0,8.642-2.383c7.967-3.592,12.519-10.1,17.25-16.894,2.027-2.881,3.485-5.37,4.41-6.971a89.154,89.154,0,0,0-.925-11.737,87.316,87.316,0,0,0-4.232-17.428A81.868,81.868,0,0,0,671.3,597.878Z" transform="translate(-637.269 -597.35)"/><path class="g" d="M675.368,631.219a55.853,55.853,0,0,1,.356,9,57.889,57.889,0,0,1-8.251,27,51.445,51.445,0,0,0,6.046-4.411,52.971,52.971,0,0,0,8.643-9.354,50.772,50.772,0,0,0-.178-9,63.987,63.987,0,0,0-2.027-10.279c-.533-2.134-1.067-3.877-1.458-5.122C677.466,629.762,676.434,630.508,675.368,631.219Z" transform="translate(-649.624 -611.628)"/><path class="g" d="M702.266,658.122c-.676,0-.6,6.117-3.485,14.689a48.285,48.285,0,0,1-5.122,11.2A38.962,38.962,0,0,1,680.072,696.5a40.679,40.679,0,0,0,9.176-4.766,41.935,41.935,0,0,0,14.511-18.708C703.261,660.754,702.692,658.122,702.266,658.122Z" transform="translate(-655.395 -624.944)"/><g transform="translate(30.111 20.308)"><path class="f" d="M690.105,635.045c1.245,6.971,2.419,13.978,1.636,21.091-.071.676,1,.676,1.067,0,.818-7.184-.391-14.3-1.672-21.376-.107-.675-1.138-.391-1.032.285Z" transform="translate(-690.098 -634.375)"/></g><g transform="translate(14.796 41.329)"><path class="f" d="M679.012,673.4a44.79,44.79,0,0,1-8.429,9.532,42.452,42.452,0,0,1-5.228,3.77c-1.245.783-2.987,1.281-3.485,2.774-.213.64.818.925,1.031.285.285-.96,1.707-1.387,2.49-1.85.889-.533,1.778-1.1,2.632-1.707A43.744,43.744,0,0,0,679.9,673.973a.528.528,0,0,0-.889-.569Z" transform="translate(-661.841 -673.162)"/></g><g transform="translate(14.769 57.429)"><path class="f" d="M661.811,703.514a74.238,74.238,0,0,1,2.7,16.005c.035.675,1.1.675,1.067,0a76.47,76.47,0,0,0-2.739-16.29.536.536,0,0,0-1.031.284Z" transform="translate(-661.79 -702.868)"/></g><g transform="translate(33.723)"><path class="f" d="M696.857,597.681a84.318,84.318,0,0,1,13.693,46.7.534.534,0,0,0,1.067,0,85.245,85.245,0,0,0-13.835-47.232c-.391-.569-1.316-.035-.925.533Z" transform="translate(-696.763 -596.904)"/></g><g transform="translate(17.498 46.854)"><path class="f" d="M667.5,711.4c14.654-2.561,24.15-14.973,30.836-27.244.32-.6-.6-1.138-.925-.533-6.58,12.057-15.827,24.256-30.2,26.746-.675.107-.391,1.138.285,1.031Z" transform="translate(-666.825 -683.356)"/></g><g transform="translate(0.632 52.37)"><path class="f" d="M649.614,698.919c-2.063-1.209-4.126-2.526-6.26-3.628-1.6-.854-3.7-1.885-5.584-1.743-3.13.249-2.169,4.446-.6,5.9.5.462,1.245-.285.747-.747-1-.924-2.169-3.77.071-4.09,1.316-.178,3.13.782,4.268,1.316,2.348,1.138,4.588,2.6,6.829,3.912a.534.534,0,0,0,.534-.924Z" transform="translate(-635.705 -693.535)"/></g><g transform="translate(0 57.405)"><path class="f" d="M636.88,702.854c-2.24.782-2.632,3.059-2.169,5.157.391,1.814,1.067,3.592,1.6,5.406a52.3,52.3,0,0,0,1.6,5.228c1,2.2,3.912,1.387,5.8.96a9.853,9.853,0,0,0,3.841-1.565c1.316-1.067,2.028-2.169,3.841-2.6.676-.142.391-1.173-.285-1.031a7.412,7.412,0,0,0-3.841,2.454,7.177,7.177,0,0,1-3.166,1.565c-.925.249-2.88.889-3.806.6-1.671-.569-1.885-2.382-2.311-3.841-.32-1.031-.6-2.028-.925-3.059-.641-2.1-3.059-7.149.142-8.216.6-.249.32-1.281-.32-1.067Z" transform="translate(-634.539 -702.825)"/></g><g transform="translate(13.986 57.394)"><path class="f" d="M660.367,703.448a83.017,83.017,0,0,1,2.526,11.808c.107.676,1.138.391,1.031-.285a89.443,89.443,0,0,0-2.525-11.808.537.537,0,0,0-1.032.285Z" transform="translate(-660.346 -702.803)"/></g><g transform="translate(0.822 16.954)"><path class="f" d="M639.531,663.652a90.8,90.8,0,0,1-1.992-12.768q-.106-1.548-.213-3.095c-.036-.854-.356-2.276.178-3.023a11.66,11.66,0,0,1,2.81-1.849c.854-.534,1.707-1.1,2.561-1.636,6.971-4.339,14.227-8.216,21.446-12.093-.249-.106-.533-.213-.782-.32,1.387,4.979,2.525,9.994,3.414,15.115.107.676,1.138.391,1.031-.285-.889-5.086-2.027-10.136-3.414-15.115a.53.53,0,0,0-.783-.32c-7.931,4.233-15.863,8.5-23.438,13.338-.96.6-1.885,1.209-2.81,1.849-.427.284-1.138.569-1.352,1.067-.32.676.036,2.134.071,2.881q.054,1.547.214,3.095a94.189,94.189,0,0,0,2.063,13.373.511.511,0,1,0,1-.213Z" transform="translate(-636.055 -628.187)"/></g></g><g transform="translate(51.702 0)"><path class="d" d="M607.719,491.378c-2.916,1.743-4.837,2.952-6.295,5.37a13.507,13.507,0,0,0-1.707,8.287l-3.841,10.457h4.3a17.6,17.6,0,0,0,1.067,6.153,15.4,15.4,0,0,0,7.078,8.465,15.031,15.031,0,0,0,9.532,1.387c.356,2.063.712,4.09,1.067,6.153a17.877,17.877,0,0,0,6.473-1.529c7.576-3.379,10.279-11.1,11.061-13.373a26.846,26.846,0,0,0,0-17.072,29.3,29.3,0,0,0-6.153-10.6c-3.521-4.161-6.508-7.682-11.061-8.145C615.721,486.577,612.947,488.248,607.719,491.378Z" transform="translate(-595.39 -480.878)"/><path class="c" d="M599.094,501.688c1.458-3.13,2.668-5.478,2.81-5.762,2.1-3.912,10.99-10.278,11.844-10.883,1.067-1.636,1.956-3.521,1.245-4.588-1.352-2.027-8.358-.712-13.089,2.81-.6.427-8.358,6.438-6.686,13.906a11.452,11.452,0,0,0,3.343,5.655C598.7,502.541,598.88,502.15,599.094,501.688Z" transform="translate(-594.98 -477.495)"/><path class="c" d="M621,481.358c-1.173,2.419-.5,4.98.214,7.647.143.5,2.205,7.861,9.212,11.631,2.028,1.067,4.837,2.6,7.434,1.565,1.351-.533,1.778-1.458,2.916-1.351,1.885.142,3.556,2.525,3.877,4.8.036.249.427,3.556-1.671,4.908a4.693,4.693,0,0,1-3.272.5c-1.031-.214-1.209-.676-1.956-.712-.355-.035-1.352.178-3.343,2.312-3.414,3.628-4.339,8.892-4.588,10.99.6-1,1.174-2.027,1.779-3.023a18.175,18.175,0,0,0-.534,7.434c.178,1.173.925,6.722,5.264,10.421,5.939,5.015,15.969,4.446,21.375-.783,3.664-3.521,4.233-8.18,4.446-9.994.854-6.686-2.6-7.291-4.944-19.846a130.615,130.615,0,0,0-2.952-12.8,28.807,28.807,0,0,0-1.992-5.086c-2.241-4.659-4.375-8.963-9-11.63C635.65,473.925,623.806,475.489,621,481.358Z" transform="translate(-606.604 -475.802)"/><path class="c" d="M609.686,561.588a17.3,17.3,0,0,0-1.387,6.153c-.107,2.561-.249,5.548,1.707,7.86a8.573,8.573,0,0,0,10.776,1.707,8.362,8.362,0,0,0,3.521-8.287c-.214-1.031-.426-2.063-.6-3.059a18.121,18.121,0,0,1-6.01-.32A19.332,19.332,0,0,1,609.686,561.588Z" transform="translate(-601.056 -515.095)"/><path class="k" d="M625.477,504.6a80.122,80.122,0,0,1,3.948,7.469c1.956,4.268,2.952,6.473,2.881,8.785-.071,2.169-.712,2.632-1.956,7.753-.569,2.383-.96,4.34-1.174,5.656.711-.747,1.387-1.494,2.1-2.241a16.131,16.131,0,0,0,.391,6.3c.142.533,2.169,7.5,8.927,10.492,6.117,2.7,13.835,1.138,14.3-1.031.213-1.138-1.6-1.814-3.806-3.948-5.726-5.442-9.212-15.685-6.3-22.8,1.779-4.3,4.624-4.41,5.228-8.536.747-4.908-2.668-9.176-3.948-10.741-7.363-9.248-20.913-8.75-23.225-8.643-.712.64-1.387,1.316-2.1,1.956a31.517,31.517,0,0,0,4.73,9.532Z" transform="translate(-606.782 -483.71)"/><path class="l" d="M596.4,538.7a24.583,24.583,0,0,1,4.268-.782c1.672-.142,2.169.035,2.312.32.178.355-.107.854-.676,1.743a9.045,9.045,0,0,1-1.1,1.529c-.178-.712-.355-1.387-.533-2.1C599.245,539.2,597.823,538.952,596.4,538.7Z" transform="translate(-595.63 -504.231)"/><g transform="translate(0 23.441)"><path class="f" d="M599.235,519.414c-1.387,3.7-2.774,7.362-4.232,11.026a.54.54,0,0,0,.5.675c1.458-.178,2.881-.249,4.339-.285a.534.534,0,0,0,0-1.067,35.071,35.071,0,0,0-4.339.285,8.06,8.06,0,0,1,.5.676c1.423-3.664,2.845-7.327,4.233-11.026.284-.64-.747-.925-1-.285Z" transform="translate(-594.98 -519.053)"/></g><g transform="translate(4.681 34.427)"><path class="f" d="M603.618,539.831c.284,4.659,1.849,10.137,5.513,13.267,3.379,2.881,8.073,3.485,12.341,3.2.676-.036.676-1.1,0-1.067-3.983.249-8.429-.214-11.594-2.881-3.486-2.916-4.944-8.145-5.193-12.519-.036-.675-1.1-.675-1.067,0Z" transform="translate(-603.617 -539.325)"/></g><g transform="translate(22.02 50.479)"><path class="f" d="M635.664,569.758a10.633,10.633,0,0,1,1.067,5.228c-.036.676,1.031.676,1.067,0a11.539,11.539,0,0,0-1.209-5.762c-.284-.64-1.21-.071-.925.534Z" transform="translate(-635.61 -568.942)"/></g><g transform="translate(30.622 24.625)"><path class="f" d="M652.5,523.367c2.383-3.379,5.94,1.423,5.9,3.912-.035,3.095-3.2,5.335-5.939,3.486-.569-.391-1.1.533-.534.924,3.771,2.6,8.074-1.174,7.469-5.3-.5-3.45-5.086-7.434-7.825-3.557-.391.569.534,1.1.925.534Z" transform="translate(-651.482 -521.239)"/></g><g transform="translate(10.715 21.729)"><path class="f" d="M614.764,516.4a10.018,10.018,0,0,0,.107,2.063,5.017,5.017,0,0,0,.426,1.778c.391.64,1.387.391,1.21-.391a.535.535,0,0,0-1.031.285v.071c.035-.178.106-.356.142-.533.036-.036.071-.036.107-.071.178.035.356.106.533.142a4.232,4.232,0,0,1-.32-1.494,10.72,10.72,0,0,1-.072-1.85.553.553,0,0,0-1.1,0Z" transform="translate(-614.75 -515.896)"/></g><g transform="translate(10.971 21.805)"><path class="f" d="M615.264,516.858a6.981,6.981,0,0,1,.533,3.308c-.035.676,1.031.676,1.067,0a7.928,7.928,0,0,0-.676-3.841c-.249-.641-1.173-.107-.925.533Z" transform="translate(-615.222 -516.035)"/></g><g transform="translate(8.428 17.034)"><path class="f" d="M611.515,509.447c1.565-2.49,4.41-.641,5.335,1.316.285.6,1.209.071.925-.534-1.281-2.739-5.228-4.446-7.149-1.316a.519.519,0,1,0,.889.534Z" transform="translate(-610.531 -507.231)"/></g><g transform="translate(5.825 37.122)"><path class="f" d="M606.114,547.266a4.719,4.719,0,0,0,5.584-2.17.534.534,0,0,0-.925-.533,3.643,3.643,0,0,1-4.374,1.672.535.535,0,0,0-.285,1.031Z" transform="translate(-605.728 -544.297)"/></g><g transform="translate(9.759 36.669)"><path class="f" d="M613.494,544.536a1.278,1.278,0,0,1,1.387,1.173c.036.676,1.1.676,1.067,0a2.37,2.37,0,0,0-2.454-2.24c-.676.036-.676,1.1,0,1.067Z" transform="translate(-612.987 -543.462)"/></g><g transform="translate(12.293 28.639)"><path class="f" d="M618.2,529.711a.534.534,0,0,0,0-1.067.534.534,0,1,0,0,1.067Z" transform="translate(-617.662 -528.644)"/></g><g transform="translate(15.129 26.504)"><path class="f" d="M623.4,525.773a.534.534,0,0,0,0-1.067.534.534,0,0,0,0,1.067Z" transform="translate(-622.896 -524.706)"/></g><g transform="translate(14.676 28.781)"><path class="f" d="M622.059,529.44v.142a.534.534,0,1,0,1.067,0v-.142a.547.547,0,0,0-.533-.534.524.524,0,0,0-.534.534Z" transform="translate(-622.059 -528.906)"/></g></g></g><g transform="translate(235.231 423.821)"><g transform="translate(48.12 170.245)"><path d="M385.3,1031.726c-.32,8.856-.676,17.713-1,26.568q41.506,7.043,42.716,2.7,1.067-3.788-28.275-16.147,3.361-26.942-1-28.275C395.326,1015.864,391.2,1020.915,385.3,1031.726Z" transform="translate(-377.463 -873.314)"/><path class="d" d="M407.795,756.633v13.124c.035,21.731.285,31.3.32,39.372A551.322,551.322,0,0,1,404.06,876.1c-1.387,12.164-2.88,22.229-4.054,29.272a18.011,18.011,0,0,1-6.4,4.232,20.385,20.385,0,0,1-3.45.96,26.33,26.33,0,0,1-12.342-.782,25.921,25.921,0,0,1-6.046-2.7c1.742-9.852,3.841-22.8,5.726-38.021,1.529-12.484,4.019-35.318,5.051-64.269.5-14.653.712-32.365,0-52.5Q395.186,754.428,407.795,756.633Z" transform="translate(-371.723 -752.294)"/><path class="h" d="M383.574,809.126c1.778-4.446,4.054-9.39,5.37-9.069,1.957.462.783,12.092,0,20.878-1.778,19.917-2.027,39.941-3.379,59.894-.818,12.413-1.743,30.018-2.028,51.465-3.912-1-7.86-2.027-11.772-3.024,3.983-22.656,7.291-47.268,9.425-73.694C382.507,839.429,383.254,823.921,383.574,809.126Z" transform="translate(-371.723 -774.164)"/><g transform="translate(27.92 7.842)"><path class="f" d="M430.536,767.28a779.442,779.442,0,0,1-3.379,112.71q-1.654,15.952-3.948,31.868c-.107.676.925.96,1.031.285a779.716,779.716,0,0,0,8.038-112.6q0-16.111-.711-32.223c0-.711-1.067-.747-1.032-.035Z" transform="translate(-423.202 -766.763)"/></g><g transform="translate(0 34.775)"><path class="f" d="M383.182,816.966c-1.174,31.085-3.735,62.135-7.682,92.971q-1.707,13.5-3.806,26.959c-.107.676.925.96,1.031.285q7.2-46.521,10.207-93.575c.569-8.856,1-17.748,1.352-26.639,0-.676-1.067-.676-1.1,0Z" transform="translate(-371.686 -816.459)"/></g><g transform="translate(0.204 152.835)"><path class="f" d="M372.328,1037.526a31.484,31.484,0,0,0,15.507,2.81c4.446-.356,9.674-1.423,12.413-5.264.391-.569-.534-1.1-.925-.533-2.7,3.77-8.393,4.624-12.7,4.8a30.676,30.676,0,0,1-13.764-2.738c-.6-.285-1.139.64-.534.925Z" transform="translate(-372.062 -1034.295)"/></g></g><g transform="translate(6.159 157.449)"><path d="M304.364,1024.707q-5.068,16.165-10.1,32.294,39.905,11.737,41.4,8.074,1.227-3.041-24.221-16.823c8.679-11.524,10.955-21.909,7.4-25.217C315.212,1019.692,306.071,1023.889,304.364,1024.707Z" transform="translate(-294.263 -862.923)"/><path class="d" d="M324.842,747.49c-.178.783-.462,3.45-1,8.749-.854,8.251-1.316,14.369-1.351,14.8-1.779,23.4-5.051,43.747-5.051,43.747a416.853,416.853,0,0,1-12.128,52.14c-2.561,8.891-4.944,16.289-6.722,21.518a34.859,34.859,0,0,0,8.074,7.4c3.2,2.1,7.007,4.623,12.128,4.375a15.885,15.885,0,0,0,4.695-1c1.529-4.446,4.161-12.164,7.078-21.874,5.37-17.89,9.816-38.2,18.495-78.069.391-1.778,5.37-24.719,5.726-26.248,3.13-3.7,6.3-7.4,9.425-11.1,5.3-12.377,5.122-24.968-1-30.267C352.975,722.807,327.723,735.362,324.842,747.49Z" transform="translate(-296.247 -728.683)"/><path class="e" d="M324.486,776.444c.427,3.094.96,7.753,1.352,13.444,1.707,26.355-2.49,44.992-6.4,65.941-2.7,14.44-6.366,35.78-9.745,62.917-3.7-2.81-7.4-5.619-11.1-8.393,1.885-5.584,4.588-13.8,7.4-23.9,9.105-32.579,12.661-59.219,15.151-78.389C322.139,800.167,323.419,789.39,324.486,776.444Z" transform="translate(-296.247 -750.559)"/><g transform="translate(1.891 20.656)"><path class="f" d="M322.927,767.33a479.345,479.345,0,0,1-16.112,108.407q-4,14.992-9.034,29.7c-.214.64.818.925,1.031.284a482.735,482.735,0,0,0,23.154-107.411q1.494-15.472,2.027-30.979c.035-.711-1.031-.711-1.067,0Z" transform="translate(-297.753 -766.797)"/></g><g transform="translate(58.059 34.13)"><path class="f" d="M409.52,791.842l-8,10.03c-.427.534.32,1.281.747.747l8-10.03c.427-.533-.32-1.281-.747-.747Z" transform="translate(-401.39 -791.658)"/></g><g transform="translate(26.788 43.434)"><path class="f" d="M375.2,809.2c-6.473,33.29-13.409,66.51-22.834,99.124q-4,13.871-8.643,27.528c-.214.641.818.925,1.031.285,10.919-32.116,18.886-65.122,25.786-98.342,1.956-9.425,3.841-18.886,5.655-28.311.143-.64-.889-.96-1-.285Z" transform="translate(-343.691 -808.825)"/></g><g transform="translate(2.075 159.264)"><path class="f" d="M298.186,1023.289a28.12,28.12,0,0,0,5.477,5.193,47.92,47.92,0,0,0,5.833,4.126c4.09,2.383,9.319,4.055,13.942,2.241.641-.249.356-1.281-.285-1.031-4.552,1.814-9.638,0-13.622-2.419a47.2,47.2,0,0,1-5.584-4.019,25.892,25.892,0,0,1-4.873-4.588c-.355-.569-1.28-.036-.889.5Z" transform="translate(-298.091 -1022.546)"/></g></g><g transform="translate(72.684 64.283)"><path class="d" d="M420.3,558.474c1.814-.391,4.233,2.668,5.549,4.3a19.527,19.527,0,0,1,3.485,6.971,58.84,58.84,0,0,1,2.241,17.214A27.6,27.6,0,0,0,434.635,596a28.914,28.914,0,0,0,10.67,10.67,29.86,29.86,0,0,0,11.061,3.7l-1.6,1.6a17.224,17.224,0,0,1,3.521.712c1.814.569,2.774.854,3.094,1a14.078,14.078,0,0,1,1.423.676,2.969,2.969,0,0,0-.676,1.885,3.06,3.06,0,0,0,1.458,2.632c.854.5,2.1.249,4.517-.249.462-.107.854-.178,1.138-.249a4.521,4.521,0,0,1,2.419.356c1.458.676,2.027,2.063,2.81,3.806a8.784,8.784,0,0,1,1,5.193,4.939,4.939,0,0,1-1.281,2.809,9.325,9.325,0,0,1-2.1,1.281,30.823,30.823,0,0,1-2.81,1.423c-1.281.462-1.921.711-2.668.426a2.064,2.064,0,0,1-1.423-1.671c.036-.854,1.1-1,1.138-1.671.036-.854-1.494-1.031-3.237-2.668-1.209-1.138-1-1.494-2.24-2.526a8.719,8.719,0,0,0-2.526-1.529c-.569-.249-.925-.285-1.813-.712-1.174-.533-1.458-.818-1.636-1.067-.356-.533-.143-.818-.462-1.173-.427-.427-1.1-.285-1.921-.285a6.458,6.458,0,0,1-2.845-.712c-.462,3.272-.925,6.544-1.423,9.852a27.739,27.739,0,0,1-7.291-2.81c-3.877-2.205-7.967-5.8-13.338-16-3.983-7.54-9.033-17.179-10.243-31.05C416.531,571.029,417.065,559.186,420.3,558.474Z" transform="translate(-417.009 -557.54)"/><path class="h" d="M421.918,559.094c.071,2.2.285,5.05.711,8.393.214,1.6.64,4.446,1.6,8.75a161,161,0,0,0,5.015,17.143c4.41,12.448,6.651,18.815,11.168,22.905a30.348,30.348,0,0,0,9.211,5.691q.054,3.681.107,7.362a11.507,11.507,0,0,1-4.339-.533,12.818,12.818,0,0,1-5.477-3.628c-4.7-4.766-7.042-7.149-9.319-10.883-9.354-15.258-10.67-32.508-10.67-32.508A74.273,74.273,0,0,1,421.918,559.094Z" transform="translate(-418.269 -557.84)"/><path class="m" d="M483.042,657.7c.213.178-.676,1.174-1.245,2.7a9.868,9.868,0,0,0-.32,5.477c-1.352-.284-2.7-.569-4.054-.818a11.64,11.64,0,0,1,2.383-4.873C481.085,658.661,482.792,657.452,483.042,657.7Z" transform="translate(-444.68 -602.99)"/><path class="h" d="M507.306,682.925c1.423-.889,1.565-1.1,2.169-1.458a9.331,9.331,0,0,1,6.011-.925,7.281,7.281,0,0,1-.712,4.659,9.164,9.164,0,0,1-1.031,1.352,10.217,10.217,0,0,1-1.849,1.672,6.091,6.091,0,0,1-3.2,1.245c-.96.036-2.49-.142-2.7-.818-.178-.641.96-1.138.818-1.957-.143-1-1.957-1.1-1.957-1.849C504.816,684.312,505.564,684.028,507.306,682.925Z" transform="translate(-457.243 -613.419)"/><g transform="translate(1.676)"><path class="f" d="M420.367,557.75a28.734,28.734,0,0,1,7.042,4.979c2.312,2.454,3.13,5.584,3.628,8.82a152.824,152.824,0,0,1,1.707,21.34.534.534,0,0,0,1.067,0,139.449,139.449,0,0,0-1.921-22.763,15.481,15.481,0,0,0-3.521-7.931,29.018,29.018,0,0,0-7.433-5.335c-.641-.356-1.174.569-.569.889Z" transform="translate(-420.102 -556.78)"/></g><g transform="translate(14.073 22.443)"><path class="f" d="M443.043,598.7a28.771,28.771,0,0,0,20.735,29.556.535.535,0,0,0,.285-1.031A27.705,27.705,0,0,1,444.11,598.7c.071-.676-1-.676-1.067,0Z" transform="translate(-442.976 -598.19)"/></g><g transform="translate(31.095 51.399)"><path class="f" d="M477.844,652.689a15.159,15.159,0,0,1,4.659,1.138,8.993,8.993,0,0,0-.143-.96c-6.615,3.77-8.5,10.848-7.86,18.032.071.676,1.138.676,1.067,0-.6-6.829,1.031-13.516,7.326-17.108a.527.527,0,0,0-.142-.96,15.988,15.988,0,0,0-4.944-1.209c-.64-.071-.64,1,.036,1.067Z" transform="translate(-474.383 -651.619)"/></g><g transform="translate(10.624 54.053)"><path class="f" d="M436.678,657.315a40.771,40.771,0,0,0,8.75,11.239c3.379,3.023,7.469,6.118,12.235,5.94.676-.036.676-1.1,0-1.067-4.766.178-9.034-3.308-12.306-6.4a39.709,39.709,0,0,1-7.753-10.243c-.32-.6-1.245-.071-.925.534Z" transform="translate(-436.612 -656.516)"/></g><g transform="translate(37.726 53.552)"><path class="f" d="M487,656.642c2.7.747,5.406,1.494,8.074,2.241a.535.535,0,0,0,.285-1.031c-2.7-.747-5.406-1.494-8.074-2.241a.535.535,0,0,0-.284,1.031Z" transform="translate(-486.618 -655.59)"/></g><g transform="translate(51.961 59.867)"><path class="f" d="M513.4,668.346a5.657,5.657,0,0,1,4.659,4.268,12.233,12.233,0,0,1,.462,3.2c0,.356-.036,4.731-1.067,3.983-.569-.391-1.1.534-.533.925,3.2,2.24,2.7-5.478,2.561-6.616-.427-3.343-2.49-6.544-6.082-6.864-.712-.036-.676,1.031,0,1.1Z" transform="translate(-512.884 -667.242)"/></g><g transform="translate(53.756 67.227)"><path class="f" d="M517.66,681.5c.391,2.241.747,4.8-1.281,6.331-.533.427.214,1.174.747.747,2.312-1.813,1.992-4.8,1.565-7.4-.107-.64-1.138-.356-1.031.32Z" transform="translate(-516.196 -680.822)"/></g><g transform="translate(51.207 68.896)"><path class="f" d="M512.838,684.548c.391,1.885.818,4.339-1.1,5.548-.569.356-.036,1.281.533.925,2.383-1.494,2.1-4.375,1.6-6.758-.142-.64-1.173-.356-1.031.284Z" transform="translate(-511.492 -683.903)"/></g><g transform="translate(49.605 69.359)"><path class="f" d="M509.137,685.4a7.472,7.472,0,0,1-.534,5.8c-.32.6.6,1.138.925.533a8.574,8.574,0,0,0,.64-6.615.536.536,0,0,0-1.031.285Z" transform="translate(-508.537 -684.756)"/></g><g transform="translate(32.203 61.732)"><path class="f" d="M476.789,671.736c1.494.356,3.023.712,4.517,1.067.676.142.96-.889.285-1.031-1.494-.356-3.023-.712-4.517-1.067a.536.536,0,0,0-.285,1.031Z" transform="translate(-476.428 -670.684)"/></g><g transform="translate(31.085 62.931)"><path class="f" d="M475.239,681.925a20.068,20.068,0,0,0,4.019-8.358c.142-.675-.889-.96-1.031-.284a19.279,19.279,0,0,1-3.735,7.9c-.427.5.32,1.281.747.747Z" transform="translate(-474.365 -672.897)"/></g><g transform="translate(31.625 62.245)"><path class="f" d="M475.625,672.205a23.734,23.734,0,0,1-.249,6.544.535.535,0,0,0,1.031.285c.676-2.205,1.423-4.411,2.2-6.616.214-.533-.533-.818-.889-.533-.214,0-.427-.036-.641-.036a8.85,8.85,0,0,1-.142.96c.32-.071,1.067-.035,1.174.391.071.214-.534,1-.6,1.174-.356.711-.747,1.387-1.1,2.1a.535.535,0,0,0,.925.533,7.356,7.356,0,0,0,1.458-4.837.546.546,0,0,0-1-.285,13.155,13.155,0,0,0-2.027,5.37c.356.036.712.107,1.032.142a10.125,10.125,0,0,1,.818-4.09c-.356-.036-.712-.107-1.031-.142a30.545,30.545,0,0,1-.676,3.592.535.535,0,0,0,1.031.284,37.145,37.145,0,0,0,.712-3.877c.071-.641-.854-.641-1.032-.142a10.907,10.907,0,0,0-.854,4.375c0,.569.96.747,1.032.142a11.989,11.989,0,0,1,1.92-5.086c-.32-.107-.676-.178-1-.285a6.653,6.653,0,0,1-1.316,4.3c.32.178.6.355.925.533.5-.925,1-1.849,1.458-2.809a2.329,2.329,0,0,0,.463-1.494c-.249-1.244-1.636-1.173-2.6-.925a.536.536,0,0,0-.143.96,1.436,1.436,0,0,0,1.957-.143c-.285-.178-.6-.355-.889-.533-.782,2.17-1.529,4.375-2.2,6.615.356.107.675.178,1.031.284a23.2,23.2,0,0,0,.285-6.829c-.072-.6-1.138-.6-1.067.071Z" transform="translate(-475.362 -671.631)"/></g></g><g transform="translate(21.792 55.62)"><path class="b" d="M352.078,554.86a239.548,239.548,0,0,1,6.046,37.38,241.561,241.561,0,0,1-5.05,72.342,48.542,48.542,0,0,0,46.876-3.45c-1-15.365-2.632-31.725-5.05-48.9-3.237-22.905-7.469-44.067-12.128-63.273a24.487,24.487,0,0,0-18.175-2.418A24.093,24.093,0,0,0,352.078,554.86Z" transform="translate(-336.377 -543.059)"/><path class="d" d="M348.953,541.638a9.52,9.52,0,0,0-2.241.391,10.342,10.342,0,0,0-4.659,3.237,73.256,73.256,0,0,1-7.292,6.687,200.3,200.3,0,0,0-1.813,29.52c.035,2.739.213,7.5.213,14.974,0,4.8,0,10.1-.213,14.76-.391,9.034-1.6,15.791-4.055,28.916-1.1,5.9-2.668,13.835-4.837,23.261a62.376,62.376,0,0,0,9.71,4.446c4.766,1.671,9.105,3.166,14.547,2.418a22.615,22.615,0,0,0,4.232-1c.676-3.628,1.6-9.069,2.419-15.756,2.632-21.34,2.1-38.163,1.6-50.931-.249-6.686-.6-15.791-2.028-27.884A301.38,301.38,0,0,0,348.953,541.638Z" transform="translate(-323.542 -541.182)"/><path class="d" d="M389.353,544.105a17.636,17.636,0,0,1,4.446,4.054c3.521,4.624,3.592,9.959,3.628,12.128.285,11.274,3.094,22.336,4.054,33.54.6,7.006.284,2.489,2.241,23.865,1.707,18.495,2.027,22.8,2.241,25.465.5,6.544,1,14.725,1.423,24.257a34.263,34.263,0,0,0,6.046,0c2.917-.249,5.8-.5,8.892-2.241a16.889,16.889,0,0,0,4.446-3.627c-.249-4.2-.747-10.777-1.6-18.779-.96-8.785-2.845-23.438-11.524-64.269-1.458-6.829-3.485-16.325-6.046-27.706-4.055-2.347-7.149-4.375-9.283-5.868-2.454-1.707-4.588-3.308-6.687-2.632A4.023,4.023,0,0,0,389.353,544.105Z" transform="translate(-353.45 -541.409)"/><path class="m" d="M332.833,611c.391,2.419,1.031,6.3,1.6,11.132,2.739,22.122,1.458,33.93,2.845,59.609.249,4.482.676,11.2,1.423,19.42q-2.827-.961-5.868-2.241a94.979,94.979,0,0,1-9.105-4.446c1.031-3.806,2.347-9,3.628-15.151a270.874,270.874,0,0,0,5.051-35.175A261.323,261.323,0,0,0,332.833,611Z" transform="translate(-323.392 -572.953)"/><path class="g" d="M390.193,546.863c-1.707.711,3.7,14.048,6.473,33.753a198.451,198.451,0,0,1,1.6,20.806c1.031,24.719.782,50.362.391,67.292,2.845-.676,5.655-1.352,8.5-2.027-.071-2.952-.178-7.291-.391-12.519-1.174-28.418-3.877-50.54-6.046-68.323-1-7.967-2.383-18.495-4.233-30.908C392.291,547.823,390.8,546.614,390.193,546.863Z" transform="translate(-353.686 -543.562)"/><path class="n" d="M411.291,555.078c.214,1.565.5,3.77.818,6.473.925,8.18,1.316,14.44,1.6,19.6.391,7.077.569,12.555.6,14.049v.284c.427,15.9,2.561,74.441,1.707,74.512-.427.036-1.885-15.436-5.548-66.616.071-3.7.142-7.4.214-11.132-.143-14.156-.107-24.043.32-27.1a7.511,7.511,0,0,0-.427-4.3c-.641-1.458-1.281-1.387-1.956-2.988a10.482,10.482,0,0,1-.6-4.517,18.918,18.918,0,0,0,.213-2.454,6.216,6.216,0,0,0-1.423-3.272c1.352.854,2.739,1.707,4.09,2.561C411.042,551.842,411.184,553.478,411.291,555.078Z" transform="translate(-361.446 -543.917)"/><g transform="translate(10.308 0.31)"><path class="f" d="M358.013,542.795c-.711-2.952-4.872-.569-6.153.462-3.308,2.668-6.473,5.584-9.567,8.465-.5.462.249,1.209.747.747,1.992-1.885,4.019-3.7,6.118-5.513.818-.711,7.22-6.58,7.86-3.877.142.676,1.138.391,1-.285Z" transform="translate(-342.128 -541.369)"/></g><g transform="translate(7.73 38.645)"><path class="f" d="M338.406,612.61a278.631,278.631,0,0,1-1.031,42.893c-.071.676,1,.676,1.067,0a283.223,283.223,0,0,0,1.031-42.893c-.036-.675-1.1-.675-1.067,0Z" transform="translate(-337.372 -612.103)"/></g><g transform="translate(19.709)"><path class="f" d="M364.535,540.826a7.341,7.341,0,0,0-5.015,7.789c.249,2.1,1.672,3.414,2.7,5.157,1.529,2.49.035,5.8-.071,8.572-.178,5.8,1.529,11.452,3.094,16.965,1.636,5.691,3.379,11.31,4.766,17.072a81.621,81.621,0,0,1,2.632,20.522.534.534,0,0,0,1.067,0c.178-14.049-4.517-27.386-8.251-40.759a55.646,55.646,0,0,1-2.169-10.777,24.568,24.568,0,0,1,.178-5.833c.214-1.388.783-2.774.533-4.2-.462-2.668-3.165-4.2-3.485-6.9a6.231,6.231,0,0,1,4.232-6.544c.747-.249.462-1.281-.214-1.067Z" transform="translate(-359.474 -540.797)"/></g><g transform="translate(24.863 0.737)"><path class="f" d="M369,542.836c6.509,31.726,9.283,64.233,7.22,96.563-.6,9.283-1.565,18.53-2.987,27.742-.107.676.925.96,1.031.285a346.082,346.082,0,0,0,.391-97.737c-1.209-9.105-2.774-18.174-4.623-27.173-.143-.64-1.174-.356-1.032.32Z" transform="translate(-368.984 -542.157)"/></g><g transform="translate(36.131 0.108)"><path class="f" d="M390.72,542.41c1.458-1.138,4.375.427,5.655,1.316a10.286,10.286,0,0,1,3.7,4.624c.249.64,1.281.356,1.031-.284a11.747,11.747,0,0,0-4.837-5.655c-1.778-1.031-4.481-2.17-6.295-.747-.569.427.213,1.174.747.747Z" transform="translate(-389.775 -540.996)"/></g><g transform="translate(35.638 2.794)"><path class="f" d="M389.129,546.922c7.256,3.805,7.362,13.729,8.287,20.806q1.6,12.164,2.987,24.4,2.721,24.434,4.588,48.94,1.067,13.978,1.814,28.026c.035.676,1.1.676,1.067,0q-2.775-51.375-9.5-102.4c-.96-7.255-1.281-16.823-8.678-20.664-.64-.356-1.174.569-.569.889Z" transform="translate(-388.864 -545.952)"/></g><g transform="translate(45.995 6.329)"><path class="f" d="M408.339,553.146c.391,1.956-.712,3.877-.249,5.833.427,1.814,2.027,3.059,2.668,4.8.747,2.063.569,4.375.534,6.509-.036,2.49-.071,4.944-.107,7.433q-.267,14.3-1.031,28.6c-.036.676,1.031.676,1.067,0,.534-9.781.889-19.526,1.067-29.307.036-2.347.071-4.7.107-7.078a20.589,20.589,0,0,0-.427-5.9c-.5-1.743-1.743-2.881-2.526-4.482-1-2.1.356-4.482-.071-6.686-.142-.676-1.174-.391-1.031.285Z" transform="translate(-407.974 -552.475)"/></g><g transform="translate(44.648 3.567)"><path class="f" d="M405.778,548.357a33.351,33.351,0,0,1,8.607,5.726c.5.462,1.245-.285.747-.747a34.18,34.18,0,0,0-8.82-5.9c-.64-.285-1.173.64-.533.924Z" transform="translate(-405.489 -547.379)"/></g><g transform="translate(61.49 44.873)"><path class="f" d="M436.586,624.239A552.807,552.807,0,0,1,447.825,699c.071.676,1.138.676,1.067,0a550.525,550.525,0,0,0-11.275-75.046.536.536,0,0,0-1.031.285Z" transform="translate(-436.565 -623.593)"/></g><g transform="translate(53.726 120.107)"><path class="f" d="M422.626,768.7c3.806,1.067,7.647.32,11.31-.925,2.952-1,6.367-1.92,8.251-4.588.391-.569-.534-1.1-.925-.534-1.779,2.49-5.442,3.414-8.216,4.3-3.308,1.067-6.722,1.636-10.136.712a.535.535,0,0,0-.285,1.031Z" transform="translate(-422.24 -762.41)"/></g><g transform="translate(0.003 77.853)"><path class="f" d="M331.129,684.833c-2.027,14.333-4.694,28.6-8,42.68-.143.676.889.96,1.031.284,3.308-14.084,5.975-28.347,8-42.68.107-.675-.925-.96-1.031-.285Z" transform="translate(-323.113 -684.446)"/></g><g transform="translate(0 121.209)"><path class="f" d="M323.373,765.434a97.414,97.414,0,0,0,9.14,4.339,41.37,41.37,0,0,0,9.532,3.059,24.8,24.8,0,0,0,8.572-.249c2.454-.533,2.063-2.845,3.2-4.623.356-.569-.569-1.1-.925-.533a9.109,9.109,0,0,0-.889,2.383c-.6,1.885-1.921,1.778-3.592,1.956a23.774,23.774,0,0,1-8.679-.533,79.3,79.3,0,0,1-15.791-6.722c-.64-.32-1.174.6-.569.925Z" transform="translate(-323.108 -764.443)"/></g><path class="d" d="M369.206,542.031" transform="translate(-344.222 -541.362)"/></g><g transform="translate(0 64.825)"><path class="d" d="M318.394,557.781a69.7,69.7,0,0,0-8.572,6.794,73.608,73.608,0,0,0-6.437,6.793c-6.189,7.149-9.354,10.812-12.84,16.432-4.019,6.438-6.01,9.674-6.793,14.618a35.207,35.207,0,0,0,1.067,14.084,51.471,51.471,0,0,0,3.734,9.994c1.636,3.486,4.375,7.54,9.817,15.543,4.73,6.971,6.615,9.425,10.172,11.595a23.213,23.213,0,0,0,5.193,2.311c.783-2.027,1.529-4.054,2.312-6.082a31.578,31.578,0,0,1,2.134,2.49c1.423,1.85,1.778,2.7,2.312,2.668.854-.036,1.387-2.1,1.956-4.268,2.668-10.386,2.632-11.95,1.778-12.484-.6-.391-1.067.178-2.668,0a7.794,7.794,0,0,1-4.09-1.779,5.8,5.8,0,0,0,0-4.624c-.854-1.671-2.311-1.636-4.446-3.735-.462-.462-.676-.747-2.845-4.09-2.311-3.557-3.45-5.335-3.734-5.9a31.464,31.464,0,0,1-2.668-7.149,47.794,47.794,0,0,1,3.2-8.216,50.125,50.125,0,0,1,14.085-16.965,45.424,45.424,0,0,0-2.668-28.027Z" transform="translate(-283.141 -557.781)"/><path class="m" d="M317.2,560.078c-1.21,1.352-2.952,3.379-4.98,5.9-7.291,9-12.59,15.507-15.9,23.9a52.709,52.709,0,0,0-3.379,19.633c.249,16.965,8.536,28.845,11.773,33.361a64.5,64.5,0,0,0,10.705,11.595c-.462.818-.96,1.671-1.423,2.49a49.8,49.8,0,0,1-6.26-3.913C299.128,646.612,295,638.68,291.126,631.1c-4.233-8.287-6.331-12.448-6.971-18.032-.854-7.682.569-16.965,5.193-22.656.356-.462.676-.783,1.779-2.134,4.41-5.371,7.255-9.5,7.86-10.35C301.227,574.767,305.993,569.468,317.2,560.078Z" transform="translate(-283.366 -558.833)"/><g transform="translate(0 0.21)"><path class="f" d="M316.017,558.315a169.952,169.952,0,0,0-17.392,18.032c-4.98,6.011-10.137,12.377-13.3,19.562-3.237,7.327-3.059,14.725-.5,22.229a89.618,89.618,0,0,0,10.457,20.771,91.837,91.837,0,0,0,7.9,10.207c2.667,2.988,5.512,5.868,9.354,7.256.64.213.925-.818.285-1.031-3.663-1.316-6.367-4.126-8.892-6.971a95.558,95.558,0,0,1-7.042-9,92.433,92.433,0,0,1-10.35-19.633,37.531,37.531,0,0,1-2.7-11.808,26.673,26.673,0,0,1,2.418-11.488c2.988-6.829,7.825-12.875,12.519-18.6A169.687,169.687,0,0,1,316.8,559.062c.5-.462-.285-1.21-.783-.747Z" transform="translate(-282.898 -558.169)"/></g><g transform="translate(20.152 29.055)"><path class="f" d="M336.391,611.5A43.024,43.024,0,0,0,320.1,635.757a.535.535,0,0,0,1.031.285,41.769,41.769,0,0,1,15.791-23.616c.569-.427.036-1.352-.533-.925Z" transform="translate(-320.081 -611.391)"/></g><g transform="translate(19.156 50.26)"><path class="f" d="M318.264,651.189a44.8,44.8,0,0,0,14.9,23.936c.534.427,1.281-.32.747-.747A43.94,43.94,0,0,1,319.26,650.9c-.143-.676-1.174-.391-1,.285Z" transform="translate(-318.243 -650.518)"/></g><g transform="translate(29.802 73.636)"><path class="f" d="M342.092,694.169a62.44,62.44,0,0,1-.64,12.093c-.285,1.849-.641,3.7-1.1,5.548-.214.854-.427,1.707-.676,2.561-.142.5-.676,3.166-1.28,3.272.214.071.391.178.6.249-.035-.071-.071-.107-.106-.178-.356-.569-1.281-.036-.925.533.036.072.071.107.107.178a.577.577,0,0,0,.6.249c1.316-.214,1.529-2.347,1.849-3.379a60.764,60.764,0,0,0,1.672-7.113,66.056,66.056,0,0,0,.925-14.014c0-.676-1.067-.711-1.031,0Z" transform="translate(-337.886 -693.649)"/></g><g transform="translate(34.144 78.012)"><path class="f" d="M346.082,702.6a9.27,9.27,0,0,0,5.8,2.1.534.534,0,0,0,0-1.067,8.167,8.167,0,0,1-5.05-1.779c-.534-.427-1.281.32-.747.747Z" transform="translate(-345.899 -701.724)"/></g><g transform="translate(32.327 92.185)"><path class="f" d="M343.053,728.945c1.138.142,1.743,1.494,2.347,2.347a4.45,4.45,0,0,0,2.241,1.956c.64.213.925-.818.285-1.031-1.174-.391-1.743-1.707-2.419-2.668a3.513,3.513,0,0,0-2.454-1.672c-.676-.071-.676,1,0,1.067Z" transform="translate(-342.546 -727.875)"/></g><g transform="translate(35.478 75.385)"><path class="f" d="M352.331,697.711c1.743,4.054,1.1,8.464.285,12.626-.783,4.055-1.708,7.824-4.162,11.239-.391.569.534,1.1.925.533,2.7-3.805,3.663-8.18,4.481-12.732.747-4.126,1.067-8.287-.64-12.235-.214-.6-1.138-.071-.889.569Z" transform="translate(-348.36 -696.877)"/></g></g><g transform="translate(28.269)"><path class="d" d="M358.438,476.807a5.9,5.9,0,0,0-3.486.142c-.355.143-2.952,1.1-3.308,3.628a4.732,4.732,0,0,0,2.561,4.7,4.6,4.6,0,0,0,1.672.462,25.243,25.243,0,0,1,.747,3.627c.356,2.632-.036,2.739.285,4.233a10.976,10.976,0,0,0,3.77,5.726c1.209.889,1.636.747,2.1,1.494.783,1.209.462,2.774,0,5.122a24.522,24.522,0,0,1-.747,2.881,7.679,7.679,0,0,0,3.913,2.561,8.167,8.167,0,0,0,4.695-.142c.6-2.454,1.209-4.944,1.814-7.4a18.276,18.276,0,0,0,5.3-1.956,15.306,15.306,0,0,0,3.485-2.561,14.419,14.419,0,0,0,3.486-6.508c2.24-7.611,1.28-13.089,2.276-19.206.071-.463.32-2.027.5-4.126.142-1.672.178-3.023.178-3.77a18.508,18.508,0,0,0-14.333-3.77c-7.113,1.28-10.884,6.686-11.879,8.109A20.747,20.747,0,0,0,358.438,476.807Z" transform="translate(-342.634 -448.935)"/><path class="c" d="M350.222,475.04a29.714,29.714,0,0,1-.142,3.877,32.066,32.066,0,0,1-.889,4.908,7.58,7.58,0,0,1-3.023,2.205,7.989,7.989,0,0,1-6.579-.64,60.17,60.17,0,0,0-.925-6.331c-1.173-5.869-2.7-9.105-3.237-11.133-1.031-3.841-.32-9.888,7.754-19.491-2.312-.071-2.845-.427-2.952-.782-.285-1.1,4.09-3.272,7.576-4.482,4.659-1.636,8.393-1.778,8.358-2.312-.036-.569-4.161-.569-4.2-1.067-.036-.569,4.659-1.921,9.745-1.565a25.118,25.118,0,0,1,13.018,5.122c1.885,1.458,5.193,4.09,6.651,8.5.462,1.387,1.565,4.731-.143,6.829a3.816,3.816,0,0,1-1.387,1.067,5.677,5.677,0,0,0-.6-3.237,6.732,6.732,0,0,0-4.019-2.774,20.178,20.178,0,0,0-15.792,1.565c-.213.143.036-.036-4.019,3.7-2.774,2.561-4.019,3.663-4.019,5.264,0,.854.391,1.494,0,1.849-.533.533-1.636-.427-3.094-.32a4.861,4.861,0,0,0-4.2,4.2c-.178,2.561,2.383,4.161,2.632,4.339A5.618,5.618,0,0,0,350.222,475.04Z" transform="translate(-335.058 -438.17)"/><path class="i" d="M363.514,467.022a42.935,42.935,0,0,0-2.988,6.117c-1.423,3.557-3.7,9.177-3.414,16.325a33.208,33.208,0,0,0,5.157,16.076l-2.454,8.429c-2.1-.427-2.916-1.209-3.272-1.921-.569-1.1-.036-2.17.142-4.482a18.947,18.947,0,0,0-.142-4.232,29.658,29.658,0,0,1-4.624-5.051c-.5-.711-.96-1.387-1.352-2.027a4.394,4.394,0,0,1-1.1,1.778,5.594,5.594,0,0,1-3.414,1.494,9.192,9.192,0,0,1-5.051-.676c-.142-1.636-.356-3.414-.675-5.3a60.072,60.072,0,0,0-2.027-8.038,4.317,4.317,0,0,0,7.931.96,4.8,4.8,0,0,1,.818-6.26,4.711,4.711,0,0,1,5.3-.391,12.771,12.771,0,0,1,.391-2.845C354.586,470.365,361.984,467.555,363.514,467.022Z" transform="translate(-336.542 -451.385)"/><g transform="translate(13.794 20.727)"><path class="f" d="M390.617,476.944a115.452,115.452,0,0,1-.675,15.685c-.6,4.766-1.992,9.639-5.371,13.2a13.047,13.047,0,0,1-13.23,3.45,16.326,16.326,0,0,1-9.852-8.821c-.284-.6-1.21-.071-.925.533,4.126,8.465,15.08,13.409,23.19,7.007,3.912-3.094,5.9-7.86,6.829-12.661a90.6,90.6,0,0,0,1.1-18.353.534.534,0,1,0-1.067-.035Z" transform="translate(-360.51 -476.414)"/></g><g transform="translate(33.76 22.417)"><path class="f" d="M399.027,480.043c.32,2.632.747,5.228,1.28,7.824.284,1.245,1,2.952.818,4.233-.178,1.565-1.992,2.525-3.414,3.023-.641.249-.356,1.28.285,1.031,1.778-.64,4.517-2.134,4.3-4.375-.178-1.742-.854-3.521-1.173-5.228-.427-2.169-.783-4.339-1.032-6.544-.071-.64-1.138-.64-1.067.036Z" transform="translate(-397.35 -479.531)"/></g><g transform="translate(29.779 25.196)"><path class="f" d="M390.86,485.166a12.612,12.612,0,0,1-.818,3.414c-.249.64.783.925,1.031.285a14.7,14.7,0,0,0,.854-3.7c.071-.676-1-.676-1.067,0Z" transform="translate(-390.004 -484.659)"/></g><g transform="translate(29.675 25.011)"><path class="f" d="M390.524,484.689a11.52,11.52,0,0,0-.712,4.09.534.534,0,0,0,1.067,0,10.737,10.737,0,0,1,.676-3.806c.249-.676-.783-.925-1.031-.285Z" transform="translate(-389.812 -484.318)"/></g><g transform="translate(26.329 20.292)"><path class="f" d="M384.566,477.749a3.957,3.957,0,0,1,5.406-.035c.5.462,1.245-.285.747-.747a5.065,5.065,0,0,0-6.936.036c-.462.462.285,1.209.783.747Z" transform="translate(-383.638 -475.611)"/></g><g transform="translate(37.834 20.798)"><path class="f" d="M405.813,478.034a2.535,2.535,0,0,1,3.7.925c.32.6,1.245.071.925-.533a3.6,3.6,0,0,0-5.371-1.138c-.569.391.214,1.138.747.747Z" transform="translate(-404.868 -476.544)"/></g><g transform="translate(28.534 39.995)"><path class="f" d="M395.57,514.567a4.642,4.642,0,0,1-6.794-2.241c-.249-.64-1.28-.356-1.031.284a5.711,5.711,0,0,0,8.358,2.845c.6-.32.036-1.245-.533-.889Z" transform="translate(-387.707 -511.965)"/></g><g transform="translate(8.3 26.863)"><path class="f" d="M358.375,489.065c-2.49-3.237-7.256.071-7.9,3.2a4.794,4.794,0,0,0,6.9,5.3c.6-.32.071-1.245-.533-.925-3.059,1.6-6.118-1.423-5.193-4.588.641-2.24,4.126-4.624,5.975-2.24.427.533,1.174-.214.747-.747Z" transform="translate(-350.373 -487.736)"/></g><g transform="translate(40.235 26.085)"><path class="f" d="M410.154,486.806a12.6,12.6,0,0,1-.818,3.414c-.249.641.782.925,1.031.285a14.727,14.727,0,0,0,.854-3.7c.071-.675-1-.675-1.067,0Z" transform="translate(-409.298 -486.299)"/></g><g transform="translate(40.131 25.875)"><path class="f" d="M409.818,486.273a11.52,11.52,0,0,0-.712,4.09.534.534,0,0,0,1.067,0,10.739,10.739,0,0,1,.676-3.806c.214-.64-.818-.925-1.031-.284Z" transform="translate(-409.106 -485.912)"/></g><g transform="translate(28.423 53.996)"><path class="f" d="M389.394,538.066a23.112,23.112,0,0,0-1.885,5.939c-.107.676.925.96,1.031.285a21.164,21.164,0,0,1,1.778-5.691c.284-.6-.64-1.138-.925-.533Z" transform="translate(-387.502 -537.8)"/></g><g transform="translate(19.11 52.159)"><path class="f" d="M371.281,534.948a19.719,19.719,0,0,1-.427,4.339,6.605,6.605,0,0,0-.5,2.6c.285,1.387,1.956,2.525,3.165,3.023,2.241.96,6.829.854,7.149-2.312.071-.676-1-.676-1.067,0-.143,1.423-2.383,1.813-3.485,1.778a5.776,5.776,0,0,1-3.735-1.458c-1.387-1.28-.569-2.774-.285-4.339a20.909,20.909,0,0,0,.285-3.663c-.071-.676-1.138-.676-1.1.035Z" transform="translate(-370.318 -534.411)"/></g><g transform="translate(22.567 52.973)"><path class="f" d="M376.941,536.916a26.015,26.015,0,0,0,6.722,2.845.535.535,0,0,0,.285-1.032,24.758,24.758,0,0,1-6.473-2.739c-.569-.355-1.1.569-.533.925Z" transform="translate(-376.698 -535.911)"/></g><g transform="translate(27.012 54.447)"><path class="f" d="M385.286,539.692a12.038,12.038,0,0,0,2.49.569c.676.106.96-.925.285-1.032a14.822,14.822,0,0,1-2.489-.569.535.535,0,0,0-.285,1.032Z" transform="translate(-384.9 -538.631)"/></g></g><g transform="translate(108 127.76)"><path class="d" d="M484,675.959c-.782.356-.782,1.565-.818,3.095-.036,1.387-.071,2.774.818,3.308a2.2,2.2,0,0,0,1.778,0,2.643,2.643,0,0,0,1.032,1.778,2.71,2.71,0,0,0,2.489.214,4.539,4.539,0,0,0,1.672,1.672,4.183,4.183,0,0,0,3.414.427c1.067-.391,2.24-1.423,2.063-2.169-.214-.854-1.956-.391-2.988-1.672-1.031-1.244-.249-2.774-1.244-3.521a2.67,2.67,0,0,0-2.276-.107,2.184,2.184,0,0,0-1.672-2.276,1.811,1.811,0,0,0-1.458.533C485.888,676.173,484.75,675.639,484,675.959Z" transform="translate(-482.63 -674.803)"/><path class="f" d="M484.221,680.822c-1.316.426-1.209-4.411-.711-4.98l1.778-.107a1.976,1.976,0,0,1,.249,1,6.814,6.814,0,0,1,0,1.209c-.035.534-.035,1.067-.071,1.6,0,.178-.036.356-.036.534a.969.969,0,0,1-.711,1.031.535.535,0,0,0-1.031.285,1.237,1.237,0,0,0,1.423.924,1.672,1.672,0,0,0,1.316-1.529,15.057,15.057,0,0,0,.178-4.2,2.886,2.886,0,0,0-1.387-2.418c-2.205-1.1-2.81,1.458-2.988,3.059-.178,1.351-.071,5.335,2.276,4.552.64-.143.356-1.174-.285-.96Z" transform="translate(-482.173 -673.903)"/><g transform="translate(2.85 1.366)"><path class="f" d="M489.333,684.217a14.454,14.454,0,0,1-.676-4.268,3.479,3.479,0,0,1,.178-1.707c1.209-.818,1.956-.6,2.169.6a7.944,7.944,0,0,1,.178,1.28c.071.676,1.138.676,1.067,0a4.342,4.342,0,0,0-1.281-3.237,1.979,1.979,0,0,0-2.454-.071c-1.921,1.565-.818,5.762-.249,7.682.249.676,1.28.391,1.067-.285Z" transform="translate(-487.432 -676.424)"/></g><g transform="translate(3.358 3.435)"><path class="f" d="M488.553,686.321a3.526,3.526,0,0,0,3.414.783.5.5,0,0,0,.356-.64,7.228,7.228,0,0,1-.285-2.312c.035-.533.178-2.1.64-2.49,1.209-1,2.49,2.561,2.845,3.237.32.6,1.245.072.925-.533-.6-1.174-1.921-4.98-3.984-3.948-1.921.96-1.636,4.659-1.209,6.331.107-.214.249-.427.356-.64a2.43,2.43,0,0,1-2.383-.5.491.491,0,1,0-.676.711Z" transform="translate(-488.369 -680.242)"/></g><g transform="translate(7.164 7.457)"><path class="f" d="M498.563,691.783a4.173,4.173,0,0,1-1.565-.712c-.889-.783-.213-1.849.783-2.169a3.877,3.877,0,0,1,3.77.925c.5.462,1.245-.285.747-.747-1.6-1.494-4.552-2.1-6.224-.356-1.85,1.921.462,3.592,2.205,4.125.64.143.924-.889.284-1.067Z" transform="translate(-495.392 -687.662)"/></g><g transform="translate(9.034 6.697)"><path class="f" d="M499.006,691.426c1.565,1.423,3.77.533,4.908-1,1.565-2.134-1.671-3.485-3.237-4.125-.64-.249-1.174.64-.533.925.711.32,3.485,1.316,3.023,2.454-.462,1.174-2.419,1.885-3.379,1.031a.529.529,0,1,0-.783.712Z" transform="translate(-498.842 -686.261)"/></g></g></g></g></svg>