<svg xmlns="http://www.w3.org/2000/svg" width="31.008" height="30.962" viewBox="0 0 31.008 30.962"><defs><style>.a{fill:#58a75d;}</style></defs><g transform="translate(-834 -928)"><g transform="translate(834 928)"><path class="a" d="M105.84,93.38v15.5H82.584V93.38h-.646A1.935,1.935,0,0,1,80,91.442v-.924a1.931,1.931,0,0,1,.833-1.589l11.3-7.823a3.875,3.875,0,0,1,4.16,0l11.3,7.823a1.931,1.931,0,0,1,.833,1.589v.924a1.935,1.935,0,0,1-1.938,1.938Z" transform="translate(-78.708 -79.214)"/><path d="M93.618,73.222l-11.34-7.849a5.193,5.193,0,0,0-5.59.027l-11.3,7.823A3.223,3.223,0,0,0,64,75.874V76.8a3.236,3.236,0,0,0,2.584,3.165V94.239a1.292,1.292,0,0,0,1.292,1.292H91.132a1.292,1.292,0,0,0,1.292-1.292V79.962A3.236,3.236,0,0,0,95.008,76.8v-.924A3.227,3.227,0,0,0,93.618,73.222ZM92.424,76.8a.647.647,0,0,1-.646.646h-3.23a1.292,1.292,0,0,0,0,2.584H89.84v12.92H69.168V80.027H70.46a1.292,1.292,0,0,0,0-2.584H67.23a.647.647,0,0,1-.646-.646v-.924a.639.639,0,0,1,.277-.526l11.258-7.8a2.57,2.57,0,0,1,2.73-.027l11.3,7.823a.641.641,0,0,1,.276.526Z" transform="translate(-64 -64.57)"/><path d="M204.515,160.4a1.938,1.938,0,1,1,1.9-2.328,1.292,1.292,0,1,0,2.533-.511,4.519,4.519,0,0,0-3.14-3.416v-.851a1.292,1.292,0,0,0-2.584,0v.837a4.521,4.521,0,0,0,1.292,8.853,1.938,1.938,0,1,1-1.9,2.328,1.292,1.292,0,1,0-2.533.511,4.519,4.519,0,0,0,3.14,3.416v.851a1.292,1.292,0,0,0,2.584,0v-.837a4.521,4.521,0,0,0-1.292-8.853Z" transform="translate(-189.011 -144.94)"/></g></g></svg>